<?xml version="1.0" standalone="no"?>
<!DOCTYPE svg PUBLIC "-//W3C//DTD SVG 1.1//EN" "http://www.w3.org/Graphics/SVG/1.1/DTD/svg11.dtd" >
<svg xmlns="http://www.w3.org/2000/svg">
<metadata></metadata>
<defs>
<font id="engravers_gothic_fs_extRg" horiz-adv-x="625" >
<font-face units-per-em="1000" ascent="800" descent="-200" />
<missing-glyph horiz-adv-x="416" />
<glyph horiz-adv-x="1000" />
<glyph horiz-adv-x="1000" />
<glyph unicode="&#xd;" horiz-adv-x="1000" />
<glyph unicode=" "  horiz-adv-x="416" />
<glyph unicode="&#x09;" horiz-adv-x="416" />
<glyph unicode="&#xa0;" horiz-adv-x="416" />
<glyph unicode="!" horiz-adv-x="416" d="M157 31q0 20 15.5 33t36.5 13t35.5 -13t14.5 -33t-14.5 -32.5t-35.5 -12.5q-22 0 -37 12.5t-15 32.5zM162 550h93l-10 -407h-72z" />
<glyph unicode="&#x22;" horiz-adv-x="348" d="M60 437v263h61v-263h-61zM226 437v263h63v-263h-63z" />
<glyph unicode="#" horiz-adv-x="961" d="M71 239l24 53h199l61 138h-215l21 53h216l105 241h78l-103 -241h162l105 241h77l-104 -241h193l-22 -53h-194l-60 -138h207l-22 -53h-208l-103 -239h-79l105 239h-164l-105 -239h-78l104 239h-200zM374 292h162l59 138h-162z" />
<glyph unicode="$" horiz-adv-x="834" d="M109 79l46 55q108 -69 226 -83v204q-120 5 -182.5 40t-62.5 95q0 61 67 102.5t178 43.5v81h71v-87q136 -18 239 -81l-42 -52q-92 59 -197 73v-157q131 -2 202.5 -45t71.5 -114q0 -70 -75.5 -119t-197.5 -49v-117h-72v120q-151 13 -272 90zM220 393q0 -66 161 -77v158 q-75 -3 -118 -26t-43 -55zM452 46q90 4 140 34.5t50 75.5h1q0 43 -50.5 69.5t-140.5 26.5v-206z" />
<glyph unicode="%" horiz-adv-x="1054" d="M31 376q0 69 55 114.5t138 45.5t137 -45.5t54 -114.5q0 -68 -54 -113t-137 -45q-82 0 -137.5 45t-55.5 113zM111 377q0 -43 32.5 -71.5t80.5 -28.5t80.5 29t32.5 71h1q0 43 -32.5 71t-81.5 28t-81 -27.5t-32 -71.5zM311 0l343 523h87l-342 -523h-88zM637 144 q0 69 54.5 113.5t137.5 44.5t137.5 -44.5t54.5 -113.5t-54.5 -113.5t-137.5 -44.5q-82 0 -137 44.5t-55 113.5zM716 144q0 -43 32.5 -71t80.5 -28q49 0 81.5 28.5t32.5 70.5q0 43 -32.5 71.5t-81.5 28.5q-48 0 -80.5 -28.5t-32.5 -71.5z" />
<glyph unicode="&#x26;" horiz-adv-x="773" d="M84 163q0 65 49.5 115.5t152.5 92.5l-185 179h443l46 -60h-316l330 -318q45 39 67 62l54 -57q-27 -30 -66 -60l120 -113h-108l-75 69q-128 -88 -261 -88q-114 0 -182.5 48.5t-68.5 129.5zM172 166q0 -52 45 -84.5t117 -32.5q111 0 212 74l-207 199q-167 -57 -167 -156z " />
<glyph unicode="'" horiz-adv-x="180" d="M60 437v263h61v-263h-61z" />
<glyph unicode="(" horiz-adv-x="341" d="M71 274q0 86 40 155t126 133l41 -39q-126 -87 -126 -249q0 -161 126 -250l-40 -38q-167 123 -167 288z" />
<glyph unicode=")" horiz-adv-x="341" d="M64 24q125 89 125 250t-125 249l40 39q86 -64 126 -133t40 -155q0 -166 -166 -288z" />
<glyph unicode="*" d="M126 420l23 51l135 -41v120h59l-3 -120l136 39l22 -50l-144 -31l99 -97l-55 -33l-87 105l-86 -103l-54 31l98 99z" />
<glyph unicode="+" horiz-adv-x="1041" d="M155 279v49h336v280h60v-280h335v-49h-335v-279h-60v279h-336z" />
<glyph unicode="," horiz-adv-x="416" d="M151 -87q39 46 54 87h-5q-18 0 -31 12.5t-13 32.5q0 21 15 35t38 14q24 0 40.5 -18t16.5 -49q0 -56 -92 -131z" />
<glyph unicode="-" horiz-adv-x="321" d="M29 244v60h264v-60h-264z" />
<glyph unicode="." horiz-adv-x="416" d="M157 31q0 20 15.5 33t36.5 13t35.5 -13t14.5 -33t-14.5 -32.5t-35.5 -12.5q-22 0 -37 12.5t-15 32.5z" />
<glyph unicode="/" horiz-adv-x="348" d="M-24 -95l321 657h74l-321 -657h-74z" />
<glyph unicode="0" horiz-adv-x="834" d="M46 260q0 118 103.5 197t266.5 79t267.5 -79t104.5 -197t-104.5 -196t-267.5 -78t-266.5 78t-103.5 196zM132 260q0 -89 80 -150t204 -61q125 0 204.5 61t79.5 150q0 90 -79 150.5t-205 60.5t-205 -60.5t-79 -150.5z" />
<glyph unicode="1" horiz-adv-x="542" d="M248 0v523h85v-523h-85z" />
<glyph unicode="2" horiz-adv-x="834" d="M144 65q0 81 40 126.5t148 76.5q32 9 74.5 20.5t65.5 18t51.5 15.5t42.5 15t28 14.5t19.5 18t5.5 20.5q0 34 -43.5 57.5t-115.5 23.5q-118 0 -260 -81l-50 53q148 93 302 93q115 0 184.5 -42.5t69.5 -104.5q0 -25 -12 -45t-28.5 -33.5t-52.5 -27t-63 -21.5t-81 -23 q-17 -5 -26 -7q-125 -34 -169.5 -60t-44.5 -82q0 -9 2 -27h488v-63h-573q0 15 -0.5 30.5t-1 23.5t-0.5 11z" />
<glyph unicode="3" horiz-adv-x="834" d="M71 107l53 52q78 -58 149.5 -84t160.5 -26q109 0 176.5 34.5t67.5 79.5q0 93 -214 93h-29v63q15 -1 42 -1q152 0 152 71q0 36 -44 59t-120 23q-133 0 -261 -76l-50 56q141 85 315 85q113 0 179.5 -41t66.5 -106q0 -61 -59 -97q109 -40 109 -127q0 -73 -90.5 -126 t-235.5 -53q-219 0 -368 121z" />
<glyph unicode="4" horiz-adv-x="834" d="M70 126v65l512 332h84v-332h108v-65h-108v-126h-83v126h-513zM199 191h383l1 249z" />
<glyph unicode="5" horiz-adv-x="834" d="M101 83l43 58q159 -91 287 -91q92 0 152 40t60 98q0 50 -60 84t-160 34q-113 0 -220 -53h-53v270h519v-64h-435v-116q105 27 188 27q140 0 224 -54t84 -136q0 -80 -84.5 -137t-217.5 -57q-170 0 -327 97z" />
<glyph unicode="6" horiz-adv-x="834" d="M72 264q0 119 102.5 195.5t267.5 76.5q162 0 293 -90l-49 -48q-112 73 -240 73q-114 0 -188.5 -44.5t-90.5 -120.5q145 62 289 62q141 0 230 -54t89 -137q0 -84 -83.5 -137.5t-223.5 -53.5q-175 0 -285.5 80.5t-110.5 197.5zM166 231q11 -75 97.5 -128t203.5 -53 q96 0 158 37.5t62 88.5h1q0 54 -66 91t-163 37q-141 0 -293 -73z" />
<glyph unicode="7" horiz-adv-x="834" d="M130 459v64h651l-452 -523h-99l394 459h-494z" />
<glyph unicode="8" horiz-adv-x="834" d="M95 162q0 92 116 136q-71 37 -71 96q0 63 73.5 101.5t202.5 38.5q130 0 203.5 -38.5t73.5 -101.5q0 -59 -72 -96q115 -44 115 -135q0 -80 -85 -128.5t-235 -48.5t-235.5 48.5t-85.5 127.5zM182 162q0 -49 62 -80.5t172 -31.5t171.5 31.5t61.5 80.5q0 55 -56.5 77 t-176.5 22t-177 -22t-57 -77zM229 395q0 -32 48 -51t139 -19q92 0 140.5 19t48.5 53q0 32 -50 53t-139 21t-138 -21t-49 -55z" />
<glyph unicode="9" horiz-adv-x="834" d="M57 344q0 84 84 138t225 54q175 0 285 -81t110 -198q0 -119 -102.5 -195t-267.5 -76q-164 0 -294 89l50 47q110 -72 240 -72q115 0 189.5 44t89.5 120q-141 -61 -288 -61q-141 0 -231 54.5t-90 136.5zM145 344q0 -54 66.5 -91t163.5 -37q138 0 291 75q-11 75 -97 127.5 t-204 52.5q-95 0 -157.5 -38t-62.5 -89z" />
<glyph unicode=":" horiz-adv-x="416" d="M157 31q0 20 15.5 33t36.5 13t35.5 -13t14.5 -33t-14.5 -32.5t-35.5 -12.5q-22 0 -37 12.5t-15 32.5zM157 317q0 20 15 32.5t37 12.5q21 0 35.5 -12.5t14.5 -32.5t-14.5 -33t-35.5 -13t-36.5 13t-15.5 33z" />
<glyph unicode=";" horiz-adv-x="416" d="M151 -87q39 46 54 87h-5q-18 0 -31 12.5t-13 32.5q0 21 15 35t38 14q24 0 40.5 -18t16.5 -49q0 -56 -92 -131zM157 317q0 20 15 32.5t37 12.5q21 0 35.5 -12.5t14.5 -32.5t-14.5 -33t-35.5 -13t-36.5 13t-15.5 33z" />
<glyph unicode="&#x3c;" horiz-adv-x="1041" d="M161 284v40l719 241v-54l-624 -207l624 -206v-54z" />
<glyph unicode="=" horiz-adv-x="1041" d="M155 187v49h731v-49h-731zM155 372v49h731v-49h-731z" />
<glyph unicode="&#x3e;" horiz-adv-x="1041" d="M161 44v54l624 206l-624 207v54l719 -241v-40z" />
<glyph unicode="?" horiz-adv-x="451" d="M34 447q38 115 203 115q85 0 133.5 -35t48.5 -95q0 -43 -48 -82l-106 -85q-25 -21 -25 -60v-71h-84v88q0 21 8.5 39t17 26.5t25.5 22.5l104 85q23 18 23 44t-27 43.5t-71 17.5q-103 0 -125 -77zM149 31q0 20 15 33t36 13t36 -13t15 -33t-14.5 -32.5t-36.5 -12.5 q-21 0 -36 12.5t-15 32.5z" />
<glyph unicode="@" horiz-adv-x="1250" d="M71 267q0 208 206 347q165 110 403 110q208 0 340 -83q159 -101 159 -253q0 -176 -149 -271q-86 -55 -189 -55q-117 0 -117 76q0 2 0.5 6.5t0.5 7.5q-64 -90 -180 -90q-94 0 -142.5 41.5t-48.5 121.5q0 115 82.5 194t200.5 79q116 0 155 -82l37 62h57l-85 -279 q-10 -33 -10 -46q0 -46 65 -46q66 0 129 41q59 38 92 101.5t33 141.5q0 125 -119.5 206.5t-311.5 81.5q-215 0 -355 -99q-182 -126 -182 -325q0 -169 149 -267q132 -87 333 -87q214 0 387 96l24 -28q-181 -110 -399 -110q-232 0 -380 92q-185 116 -185 316zM429 221 q0 -55 33.5 -86t92.5 -31q65 0 115.5 35.5t68.5 94.5l37 123q-11 46 -46 72.5t-85 26.5q-94 0 -155 -67t-61 -168z" />
<glyph unicode="A" horiz-adv-x="735" d="M0 0l330 550h70l334 -550h-91l-92 148h-372l-89 -148h-90zM217 212h297l-149 244z" />
<glyph unicode="B" horiz-adv-x="816" d="M101 0v550h399q201 0 201 -137q0 -67 -61 -101q109 -51 109 -147q0 -76 -61 -120.5t-167 -44.5h-420zM185 63h352q58 0 91 28t33 75t-32.5 75t-90.5 28h-353v-206zM185 333h322q109 0 109 76q0 78 -108 78h-323v-154z" />
<glyph unicode="C" horiz-adv-x="755" d="M47 273q0 126 99 207.5t250 81.5q93 0 170 -33.5t125 -94.5l-70 -41q-31 49 -91 77t-134 28q-113 0 -187.5 -63.5t-74.5 -161.5q0 -97 74.5 -160t187.5 -63q161 0 243 125l67 -40q-46 -72 -126.5 -110.5t-183.5 -38.5q-151 0 -250 81t-99 206z" />
<glyph unicode="D" horiz-adv-x="790" d="M101 0v550h289q161 0 257.5 -78t96.5 -199t-94.5 -197t-259.5 -76h-289zM185 63h205q127 0 197 58t70 153h1q0 95 -72 154t-196 59h-205v-424z" />
<glyph unicode="E" horiz-adv-x="683" d="M101 0v550h530v-63h-446v-162h270v-63h-270v-199h474v-63h-558z" />
<glyph unicode="F" horiz-adv-x="619" d="M101 0v550h530v-63h-446v-162h270v-63h-270v-262h-84z" />
<glyph unicode="G" horiz-adv-x="773" d="M47 273q0 126 99 207.5t250 81.5q93 0 170 -33.5t125 -94.5l-70 -41q-31 49 -91 77t-134 28q-113 0 -187.5 -63.5t-74.5 -161.5q0 -97 74.5 -160t187.5 -63q141 0 222 99v81h-184v63h267v-165q-100 -142 -305 -142q-151 0 -250 81t-99 206z" />
<glyph unicode="H" horiz-adv-x="770" d="M101 0v550h85v-217h398v217h84v-550h-84v269h-398v-269h-85z" />
<glyph unicode="I" horiz-adv-x="289" d="M102 0v550h86v-550h-86z" />
<glyph unicode="J" horiz-adv-x="671" d="M24 149v88h83v-86q0 -54 49 -77.5t155 -23.5q108 0 146 30.5t38 113.5v356h84v-375q0 -101 -65.5 -145t-217.5 -44q-272 0 -272 163z" />
<glyph unicode="K" horiz-adv-x="733" d="M101 0v550h84v-275l386 275h110l-272 -196l314 -354h-102l-272 307l-164 -112v-195h-84z" />
<glyph unicode="L" d="M101 0v550h84v-487h440v-63h-524z" />
<glyph unicode="M" horiz-adv-x="894" d="M97 0v550h78l272 -337l274 337h77v-550h-83v429l-267 -325l-268 325v-429h-83z" />
<glyph unicode="N" horiz-adv-x="766" d="M101 0v550h44l437 -411v411h84v-550h-42l-439 411v-411h-84z" />
<glyph unicode="O" horiz-adv-x="793" d="M47 273q0 126 99 207.5t250 81.5t250.5 -81.5t99.5 -207.5q0 -125 -99 -206t-251 -81q-151 0 -250 81t-99 206zM134 273q0 -97 74.5 -160t187.5 -63t188 63t75 160q0 98 -74.5 161.5t-188.5 63.5q-113 0 -187.5 -63.5t-74.5 -161.5z" />
<glyph unicode="P" horiz-adv-x="733" d="M97 0v550h387q99 0 155 -40t56 -109q0 -71 -53.5 -115.5t-146.5 -44.5h-314v-241h-84zM181 305h298q128 0 128 90h1q0 43 -32.5 67.5t-92.5 24.5h-302v-182z" />
<glyph unicode="Q" horiz-adv-x="793" d="M47 273q0 126 99 207.5t250 81.5t250.5 -81.5t99.5 -207.5q0 -93 -57.5 -164t-162.5 -106l45 -75h-93l-37 60q-20 -2 -52 -2q-144 0 -243 81.5t-99 205.5zM134 273q0 -96 73 -159t187 -63h11l-41 70h93l34 -58q79 26 123.5 81.5t44.5 128.5q0 98 -74.5 161.5t-188.5 63.5 q-113 0 -187.5 -63.5t-74.5 -161.5z" />
<glyph unicode="R" horiz-adv-x="746" d="M97 0v550h387q99 0 155 -40.5t56 -112.5q0 -59 -43.5 -102t-116.5 -53l169 -242h-93l-168 241h-262v-241h-84zM181 305h298q128 0 128 90h1q0 43 -32.5 67.5t-92.5 24.5h-302v-182z" />
<glyph unicode="S" horiz-adv-x="746" d="M37 83l49 59q146 -93 301 -93q95 0 153 32.5t58 82.5q0 39 -41 66t-117 32q-16 1 -54 3t-54 3t-45.5 4t-46.5 5.5t-38.5 7.5t-38.5 12q-97 37 -97 113q0 65 71.5 108.5t189.5 43.5q171 0 323 -90l-49 -57q-125 83 -272 83q-78 0 -126.5 -25t-48.5 -60q0 -29 32 -49 q20 -13 52 -20t60.5 -8.5t79.5 -4.5t86 -6q104 -10 163 -54.5t59 -108.5q0 -74 -80 -125t-217 -51q-199 0 -352 97z" />
<glyph unicode="T" horiz-adv-x="521" d="M-65 487v63h651v-63h-283v-487h-84v487h-284z" />
<glyph unicode="U" horiz-adv-x="724" d="M84 175v375h83v-356q0 -86 39.5 -115t154.5 -29t154.5 29t39.5 115v356h84v-375q0 -101 -64.5 -145t-213.5 -44q-148 0 -212.5 44t-64.5 145z" />
<glyph unicode="V" horiz-adv-x="686" d="M-9 550h91l260 -441l260 441h93l-326 -550h-53z" />
<glyph unicode="W" horiz-adv-x="900" d="M-8 550h83l167 -425l172 425h75l171 -424l167 424h81l-219 -550h-61l-178 443l-176 -443h-61z" />
<glyph unicode="X" horiz-adv-x="686" d="M17 0l276 276l-272 274h103l221 -221l220 221h101l-271 -271l279 -279h-108l-223 226l-227 -226h-99z" />
<glyph unicode="Y" horiz-adv-x="568" d="M-63 550h105l242 -217l240 217h106l-305 -276v-274h-84v275z" />
<glyph unicode="Z" horiz-adv-x="636" d="M-3 0l456 487h-417v63h569l-445 -487h443v-63h-606z" />
<glyph unicode="[" horiz-adv-x="341" d="M70 0v550h195v-59h-118v-432h118v-59h-195z" />
<glyph unicode="\" horiz-adv-x="348" d="M-24 562h74l321 -657h-73z" />
<glyph unicode="]" horiz-adv-x="341" d="M76 0v59h118v432h-118v59h197v-550h-197z" />
<glyph unicode="^" horiz-adv-x="1250" d="M257 449l325 277h85l324 -277h-87l-279 226l-280 -226h-88z" />
<glyph unicode="_" horiz-adv-x="500" d="M0 -191h500v-50h-500v50z" />
<glyph unicode="`" d="M169 666h92l128 -174h-56z" />
<glyph unicode="a" horiz-adv-x="561" d="M-11 0l265 425h51l268 -425h-88l-67 108h-275l-68 -108h-86zM177 164h204l-101 163z" />
<glyph unicode="b" horiz-adv-x="680" d="M90 0v425h320q161 0 161 -105q0 -55 -50 -79q88 -41 88 -113q0 -59 -48 -93.5t-135 -34.5h-336zM171 61h264q43 0 66.5 19t23.5 52q0 32 -23.5 50.5t-66.5 18.5h-264v-140zM171 263h238q78 0 78 51h1q0 50 -80 50h-237v-101z" />
<glyph unicode="c" horiz-adv-x="689" d="M44 211q0 97 88.5 161.5t226.5 64.5q178 0 267 -100l-65 -37q-66 75 -202 75q-101 0 -166.5 -46.5t-65.5 -116.5t66 -116.5t166 -46.5q136 0 216 92l65 -37q-92 -117 -281 -117q-138 0 -226.5 63.5t-88.5 160.5z" />
<glyph unicode="d" horiz-adv-x="645" d="M90 0v425h231q130 0 207 -60t77 -154t-75.5 -152.5t-208.5 -58.5h-231zM171 61h151q95 0 147 41.5t52 109.5q0 66 -54 109t-144 43h-152v-303z" />
<glyph unicode="e" horiz-adv-x="628" d="M89 0v425h489v-62h-408v-106h268v-61h-268v-135h430v-61h-511z" />
<glyph unicode="f" horiz-adv-x="588" d="M89 0v425h481v-62h-400v-106h259v-61h-259v-196h-81z" />
<glyph unicode="g" horiz-adv-x="718" d="M44 211q0 97 91 161.5t236 64.5q182 0 277 -100l-63 -37q-70 75 -214 75q-108 0 -176 -46.5t-68 -116.5t67 -116.5t177 -46.5q68 0 124.5 20t79.5 50v46h-133v61h216v-128q-92 -111 -287 -111q-145 0 -236 64t-91 160z" />
<glyph unicode="h" horiz-adv-x="706" d="M89 0v425h81v-165h366v165h82v-425h-82v198h-366v-198h-81z" />
<glyph unicode="i" horiz-adv-x="264" d="M90 0v425h83v-425h-83z" />
<glyph unicode="j" horiz-adv-x="559" d="M30 128v54h81v-45q0 -47 36 -68t113 -21q79 0 107 26.5t28 97.5v253h81v-274q0 -88 -52.5 -126t-173.5 -38q-220 0 -220 141z" />
<glyph unicode="k" horiz-adv-x="594" d="M90 0v425h81v-188l276 188h108l-219 -151l252 -274h-92l-217 236l-108 -75v-161h-81z" />
<glyph unicode="l" horiz-adv-x="561" d="M89 0v425h81v-364h388v-61h-469z" />
<glyph unicode="m" horiz-adv-x="741" d="M89 0v425h67l214 -249l214 249h67v-425h-81v306l-200 -237l-200 237v-306h-81z" />
<glyph unicode="n" horiz-adv-x="634" d="M90 0v425h42l332 -299v299h80v-425h-43l-331 298v-298h-80z" />
<glyph unicode="o" horiz-adv-x="726" d="M44 212q0 97 88.5 161t229.5 64q143 0 232 -64t89 -161q0 -96 -89 -160.5t-231 -64.5q-141 0 -230 64.5t-89 160.5zM127 212q0 -70 65 -116.5t170 -46.5q107 0 172 46.5t65 116.5t-65.5 116.5t-170.5 46.5q-106 0 -171 -46.5t-65 -116.5z" />
<glyph unicode="p" horiz-adv-x="665" d="M90 0v425h379q80 0 125 -31t45 -87q0 -52 -43.5 -86.5t-117.5 -34.5h-307v-186h-81zM171 248h298q86 0 86 58q0 57 -82 57h-302v-115z" />
<glyph unicode="q" horiz-adv-x="726" d="M44 212q0 97 88.5 161t229.5 64q143 0 232 -64t89 -161q0 -68 -45 -119.5t-121 -80.5l72 -70h-100l-51 50q-63 -5 -75 -5q-141 0 -230 64.5t-89 160.5zM127 212q0 -69 64 -116t165 -47q4 0 11.5 0.5t11.5 0.5l-53 52h99l41 -41q64 22 98.5 62t34.5 89q0 70 -65.5 116.5 t-170.5 46.5q-106 0 -171 -46.5t-65 -116.5z" />
<glyph unicode="r" horiz-adv-x="678" d="M90 0v425h359q80 0 125 -31.5t45 -86.5q0 -45 -35.5 -78.5t-93.5 -40.5l145 -188h-89l-147 187h-228v-187h-81zM171 249h278q86 0 86 58q0 57 -86 57h-278v-115z" />
<glyph unicode="s" horiz-adv-x="619" d="M44 54l40 56q113 -62 238 -62q72 0 114 23.5t42 59.5q0 37 -40 54t-123 19q-131 2 -190 24.5t-59 86.5q0 54 57.5 88t157.5 34q134 0 253 -62l-41 -55q-103 56 -213 56q-60 0 -95.5 -17t-35.5 -44q0 -30 38 -41t124 -11q252 0 252 -137q0 -58 -63.5 -98.5t-168.5 -40.5 q-158 0 -287 67z" />
<glyph unicode="t" horiz-adv-x="506" d="M-8 366v59h522v-59h-220v-366h-81v366h-221z" />
<glyph unicode="u" horiz-adv-x="695" d="M90 135v290h81v-273q0 -62 36 -83t140 -21q105 0 141 21t36 83v273h81v-290q0 -79 -61 -113.5t-198 -34.5t-196.5 34.5t-59.5 113.5z" />
<glyph unicode="v" horiz-adv-x="590" d="M12 425h87l196 -318l192 318h91l-262 -425h-42z" />
<glyph unicode="w" horiz-adv-x="766" d="M11 425h80l128 -311l131 311h67l132 -311l127 311h80l-175 -425h-58l-139 327l-139 -327h-57z" />
<glyph unicode="x" horiz-adv-x="564" d="M12 0l219 213l-216 212h99l167 -163l168 163h100l-218 -210l220 -215h-98l-172 166l-172 -166h-97z" />
<glyph unicode="y" horiz-adv-x="559" d="M1 425h105l173 -151l170 151h109l-239 -207v-218h-80v217z" />
<glyph unicode="z" horiz-adv-x="546" d="M21 0l338 363h-308v62h458l-340 -364h337v-61h-485z" />
<glyph unicode="{" d="M106 238v54q5 0 14.5 -0.5t13.5 -0.5q84 0 118.5 31.5t34.5 107.5v121q0 107 40.5 145.5t164.5 38.5h29v-53h-22q-84 0 -110 -26t-26 -100v-120q0 -79 -24.5 -117t-96.5 -55q72 -16 96 -54t24 -117v-121q0 -73 25.5 -99.5t106.5 -26.5q4 0 13 0.5t14 0.5v-53h-28 q-126 0 -165.5 38t-39.5 146v121q0 76 -34.5 108t-119.5 32q-4 0 -13.5 -0.5t-14.5 -0.5z" />
<glyph unicode="|" d="M280 -241v1020h66v-1020h-66z" />
<glyph unicode="}" d="M105 -153h24q82 0 108.5 26t26.5 99v121q0 79 23.5 117t96.5 54q-72 17 -96 55t-24 117v120q0 74 -25 100.5t-106 26.5q-4 0 -13.5 -0.5t-14.5 -0.5v53h29q124 0 164.5 -38.5t40.5 -145.5v-121q0 -76 34.5 -107.5t118.5 -31.5q4 0 13.5 0.5t14.5 0.5v-54q-5 0 -14 0.5 t-13 0.5q-85 0 -119.5 -32t-34.5 -108v-121q0 -107 -40.5 -145.5t-164.5 -38.5h-29v53z" />
<glyph unicode="~" horiz-adv-x="1041" d="M109 235v56q128 72 236 72q65 0 178 -34.5t174 -34.5q101 0 237 79v-56q-123 -71 -236 -71q-67 0 -178.5 34t-174.5 34q-98 0 -236 -79z" />
<glyph unicode="&#xa1;" horiz-adv-x="416" d="M157 517q0 20 15 32.5t37 12.5q21 0 35.5 -12.5t14.5 -32.5t-14.5 -33t-35.5 -13t-36.5 13t-15.5 33zM162 -2l10 407h73l10 -407h-93z" />
<glyph unicode="&#xa2;" horiz-adv-x="834" d="M161 260q0 89 67.5 150.5t176.5 72.5v134h72v-135q129 -10 201 -96l-67 -38q-44 59 -134 72v-321q51 10 84.5 31t60.5 59l68 -37q-68 -101 -212 -115v-168h-73v167q-110 12 -177 74t-67 150zM245 260q0 -62 42.5 -105t117.5 -55v321q-71 -10 -115.5 -54.5t-44.5 -106.5z " />
<glyph unicode="&#xa3;" horiz-adv-x="834" d="M111 228v65h89l-6 43q-3 15 -3 28q0 80 66.5 126t181.5 46q152 0 302 -93l-50 -53q-141 81 -250 81q-76 0 -121.5 -31.5t-45.5 -83.5q0 -21 2 -35l4 -28h209v-65h-202l18 -165h439v-63h-599l5 63h74l-18 165h-95z" />
<glyph unicode="&#xa4;" horiz-adv-x="758" d="M55 209l125 103q-55 61 -55 129t55 129l-125 102l40 33l125 -102q73 45 159 45q87 0 160 -45l125 102l40 -33l-125 -102q54 -60 54 -129t-54 -129l125 -103l-40 -33l-125 102q-73 -44 -160 -44q-85 0 -159 44l-125 -102zM181 442q0 -67 58.5 -115t140.5 -48t139 48 t57 115q0 66 -57 113t-139 47t-140.5 -47.5t-58.5 -112.5z" />
<glyph unicode="&#xa5;" horiz-adv-x="788" d="M57 534h103l234 -211l232 211h104l-174 -156h160v-45h-208l-67 -58h275v-45h-282v-230h-81v230h-282v45h273l-63 58h-210v45h159z" />
<glyph unicode="&#xa6;" d="M280 -174v377h66v-377h-66zM280 336v377h66v-377h-66z" />
<glyph unicode="&#xa7;" d="M110 256q0 66 84 110q-43 30 -43 77q0 52 43.5 85.5t112.5 33.5q75 0 119 -32.5t44 -88.5v-4h-80q-1 30 -23.5 48.5t-58.5 18.5q-35 0 -54.5 -14t-19.5 -38q0 -21 16.5 -35.5t53.5 -30.5l116 -51q94 -42 94 -112q0 -36 -24 -66t-63 -43q49 -33 49 -82q0 -52 -47.5 -87.5 t-122.5 -35.5q-72 0 -117 35t-45 92v2h80v-2q0 -32 23.5 -49.5t67.5 -17.5q37 0 58.5 14.5t21.5 39.5t-24 43t-81 44l-85 38q-95 42 -95 108zM194 277q0 -24 19 -39.5t64 -37.5l104 -49q46 21 46 62h1q0 24 -19 39t-64 36l-101 47q-50 -24 -50 -58z" />
<glyph unicode="&#xa8;" d="M160 571q0 19 16 32t39 13t38.5 -13t15.5 -32t-15.5 -32t-38.5 -13t-39 13t-16 32zM356 571q0 19 16 32t38 13q23 0 39 -13t16 -32t-16 -32t-39 -13q-22 0 -38 13t-16 32z" />
<glyph unicode="&#xa9;" horiz-adv-x="1041" d="M74 360q0 149 133 260q126 105 313 105t319 -107q129 -104 129 -258q0 -153 -129 -256q-137 -109 -319 -109t-315 108q-131 106 -131 257zM122 360q0 -132 118 -228q117 -96 280 -96q165 0 285 97q114 92 114 227t-115 230q-116 95 -284 95q-166 0 -279 -93 q-119 -99 -119 -232zM286 362q0 102 66.5 162.5t172.5 60.5q82 0 137.5 -35.5t63.5 -93.5h-71q-11 40 -46 62t-86 22q-74 0 -116 -47.5t-42 -133.5q0 -83 42 -129.5t115 -46.5q55 0 92.5 25t47.5 68h71q-7 -62 -67 -101.5t-147 -39.5q-107 0 -170 60t-63 167z" />
<glyph unicode="&#xaa;" horiz-adv-x="370" d="M-8 208l175 255h34l177 -255h-58l-45 65h-181l-44 -65h-58zM117 307h134l-66 98z" />
<glyph unicode="&#xab;" horiz-adv-x="506" d="M29 162v99l197 122v-73l-155 -98l155 -100v-70zM279 162v99l197 122v-73l-155 -98l155 -100v-70z" />
<glyph unicode="&#xac;" horiz-adv-x="1041" d="M155 377v50h731v-250h-58v200h-673z" />
<glyph unicode="&#xad;" horiz-adv-x="321" d="M29 244v60h264v-60h-264z" />
<glyph unicode="&#xae;" horiz-adv-x="1041" d="M74 360q0 149 133 260q126 105 313 105q189 0 319 -107q129 -106 129 -258q0 -153 -129 -256q-137 -109 -319 -109q-184 0 -315 108q-131 106 -131 257zM122 360q0 -132 118 -228q117 -96 280 -96q165 0 285 97q114 92 114 226q0 137 -114 231q-116 95 -285 95 q-164 0 -277 -93q-121 -100 -121 -232zM345 156v420h189q108 0 160 -28t52 -88q0 -44 -32.5 -74t-88.5 -36l115 -194h-89l-108 185h-120v-185h-78zM422 383h97q79 0 113 16t34 57t-35 59t-112 18h-97v-150z" />
<glyph unicode="&#xaf;" d="M156 542v58h313v-58h-313z" />
<glyph unicode="&#xb0;" horiz-adv-x="411" d="M36 584q0 58 49.5 98.5t120.5 40.5q70 0 119.5 -40.5t49.5 -98.5q0 -57 -49.5 -97.5t-120.5 -40.5t-120 40t-49 98zM79 584q0 -43 37 -73t90 -30t89.5 30t36.5 73h1q0 43 -37 74t-90 31t-90 -31t-37 -74z" />
<glyph unicode="&#xb1;" horiz-adv-x="1041" d="M155 26v48h731v-48h-731zM155 360v49h336v173h60v-173h335v-49h-335v-173h-60v173h-336z" />
<glyph unicode="&#xb2;" horiz-adv-x="550" d="M95 248q0 49 26.5 76t98.5 46q18 5 39 10t35 8.5l30 7.5t26 7t21 7t17 7t11.5 7.5t7.5 9t2 9.5q0 20 -29 34.5t-76 14.5q-76 0 -171 -49l-34 31q98 56 200 56q75 0 121 -25.5t46 -61.5q0 -41 -61 -64q-23 -9 -112 -31q-44 -11 -64.5 -17t-41.5 -16t-28.5 -22t-7.5 -30 q0 -10 1 -16h323v-38h-379v19t-0.5 14t-0.5 6z" />
<glyph unicode="&#xb3;" horiz-adv-x="550" d="M47 273l34 32q98 -66 205 -66q73 0 117.5 20t44.5 48q0 56 -142 56h-19v38q10 -1 28 -1q100 0 100 43q0 21 -29 35t-78 14q-87 0 -173 -46l-34 33q90 51 209 51q75 0 119 -24t44 -63q0 -36 -39 -58q71 -25 71 -77q0 -43 -59.5 -75t-155.5 -32q-146 0 -243 72z" />
<glyph unicode="&#xb4;" d="M236 492l128 174h92l-163 -174h-57z" />
<glyph unicode="&#xb5;" horiz-adv-x="695" d="M90 -200v625h81v-273q0 -62 36 -83t140 -21q105 0 141 21t36 83v273h81v-290q0 -79 -61 -113.5t-198 -34.5q-114 0 -175 24v-211h-81z" />
<glyph unicode="&#xb6;" d="M51 563q0 77 65.5 125t174.5 48h283v-34h-78v-702h-50v702h-115v-702h-50v390q-106 4 -168 51t-62 122z" />
<glyph unicode="&#xb7;" horiz-adv-x="416" d="M156 266q0 19 15 31t36 12q22 0 38 -12.5t16 -30.5q0 -17 -15.5 -30t-37.5 -13t-37 13t-15 30z" />
<glyph unicode="&#xb8;" d="M166 -170q97 -18 144 -18q80 0 80 45q0 28 -21 40t-66 12q-19 0 -29 -1v92h38v-55h13q64 0 98.5 -22.5t34.5 -63.5q0 -42 -35 -64.5t-103 -22.5q-63 0 -154 20v38z" />
<glyph unicode="&#xb9;" horiz-adv-x="550" d="M246 209v314h57v-314h-57z" />
<glyph unicode="&#xba;" horiz-adv-x="479" d="M29 336q0 57 58 95.5t152 38.5t152.5 -38t58.5 -96q0 -59 -58.5 -97.5t-152.5 -38.5q-93 0 -151.5 39t-58.5 97zM84 336q0 -42 43 -70t112 -28q71 0 113.5 28t42.5 70t-43 70t-113 28q-69 0 -112 -28t-43 -70z" />
<glyph unicode="&#xbb;" horiz-adv-x="506" d="M30 42v70l155 100l-155 98v73l197 -122v-99zM281 42v70l154 100l-154 98v73l197 -122v-99z" />
<glyph unicode="&#xbc;" horiz-adv-x="1259" d="M235 230v293h54v-293h-54zM321 -14l541 548h74l-540 -548h-75zM777 70v37l324 186h53v-186h67v-37h-67v-70h-53v70h-324zM859 107h242v139z" />
<glyph unicode="&#xbd;" horiz-adv-x="1259" d="M235 230v293h54v-293h-54zM297 -14l541 548h74l-540 -548h-75zM824 37q0 45 25.5 70t94.5 43q21 5 46.5 11.5t40.5 10.5t32.5 8.5t27 8.5t18 8.5t12 9.5t3.5 11q0 19 -27.5 32.5t-72.5 13.5q-75 0 -164 -46l-31 30q91 52 190 52q72 0 116 -24t44 -59q0 -31 -33 -46.5 t-111 -34.5q-15 -3 -22 -5q-79 -20 -107.5 -34.5t-28.5 -46.5q0 -2 1.5 -7.5t1.5 -6.5h306v-36h-360q0 8 -0.5 17t-1 13.5t-0.5 6.5z" />
<glyph unicode="&#xbe;" horiz-adv-x="1259" d="M45 291l32 28q93 -61 197 -61q68 0 110 19.5t42 44.5q0 52 -133 52h-19v35h27q95 0 95 39q0 20 -27.5 33.5t-75.5 13.5q-81 0 -164 -43l-33 31q88 47 199 47q72 0 113.5 -22.5t41.5 -59.5q0 -33 -36 -54q69 -23 69 -71q0 -41 -57.5 -71t-149.5 -30q-136 0 -231 69z M347 -14l541 548h74l-540 -548h-75zM777 70v37l324 186h53v-186h67v-37h-67v-70h-53v70h-324zM859 107h242v139z" />
<glyph unicode="&#xbf;" horiz-adv-x="451" d="M32 115q0 44 48 83l106 85q25 19 25 60v71h84v-89q0 -21 -8.5 -38.5t-17 -26t-25.5 -22.5l-104 -85q-23 -19 -23 -44q0 -27 27 -44t71 -17q103 0 125 76l78 -23q-37 -115 -203 -115q-85 0 -134 35t-49 94zM200 517q0 20 15 32.5t36 12.5q22 0 37 -12.5t15 -32.5 t-15.5 -33t-36.5 -13t-36 13t-15 33z" />
<glyph unicode="&#xc0;" horiz-adv-x="735" d="M0 0l330 550h70l334 -550h-91l-92 148h-372l-89 -148h-90zM217 212h297l-149 244zM224 789h92l128 -174h-56z" />
<glyph unicode="&#xc1;" horiz-adv-x="735" d="M0 0l330 550h70l334 -550h-91l-92 148h-372l-89 -148h-90zM217 212h297l-149 244zM291 615l128 174h92l-163 -174h-57z" />
<glyph unicode="&#xc2;" horiz-adv-x="735" d="M0 0l330 550h70l334 -550h-91l-92 148h-372l-89 -148h-90zM199 615l122 174h93l122 -174h-56l-112 131l-113 -131h-56zM217 212h297l-149 244z" />
<glyph unicode="&#xc3;" horiz-adv-x="735" d="M0 0l330 550h70l334 -550h-91l-92 148h-372l-89 -148h-90zM191 644q28 91 119 91q19 0 32 -4l59 -15q21 -6 34 -6q38 0 59 36h50q-32 -91 -116 -91q-20 0 -40 6l-59 15q-18 4 -33 4q-36 0 -56 -36h-49zM217 212h297l-149 244z" />
<glyph unicode="&#xc4;" horiz-adv-x="735" d="M0 0l330 550h70l334 -550h-91l-92 148h-372l-89 -148h-90zM215 694q0 19 16 32t39 13q22 0 38 -13t16 -32t-16 -32t-38 -13q-23 0 -39 13t-16 32zM217 212h297l-149 244zM411 694q0 19 15.5 32t38.5 13t39 -13t16 -32t-16 -32t-39 -13t-38.5 13t-15.5 32z" />
<glyph unicode="&#xc5;" horiz-adv-x="735" d="M0 0l330 550h70l334 -550h-91l-92 148h-372l-89 -148h-90zM217 212h297l-149 244zM220 722q0 50 42.5 84.5t103.5 34.5q62 0 105 -35t43 -84q0 -50 -43 -85.5t-104 -35.5q-62 0 -104.5 35.5t-42.5 85.5zM275 721q0 -32 26.5 -53.5t64.5 -21.5t65 22t27 53t-26.5 53 t-64.5 22q-39 0 -65.5 -21.5t-26.5 -53.5z" />
<glyph unicode="&#xc6;" horiz-adv-x="1074" d="M-31 0l391 550h688v-63h-447v-162h272v-63h-272v-199h475v-63h-558v148h-354l-106 -148h-89zM207 212h311v275h-114z" />
<glyph unicode="&#xc7;" horiz-adv-x="755" d="M47 273q0 126 99 207.5t250 81.5q93 0 170 -33.5t125 -94.5l-70 -41q-31 49 -91 77t-134 28q-113 0 -187.5 -63.5t-74.5 -161.5q0 -97 74.5 -160t187.5 -63q161 0 243 125l67 -40q-46 -72 -126.5 -110.5t-183.5 -38.5h-2v-41h13q64 0 98.5 -22.5t34.5 -63.5 q0 -42 -35 -64.5t-103 -22.5q-63 0 -154 20v38q97 -18 144 -18q80 0 80 45q0 28 -21 40t-66 12q-19 0 -29 -1v80q-136 11 -222.5 90t-86.5 195z" />
<glyph unicode="&#xc8;" horiz-adv-x="683" d="M101 0v550h530v-63h-446v-162h270v-63h-270v-199h474v-63h-558zM232 789h92l128 -174h-56z" />
<glyph unicode="&#xc9;" horiz-adv-x="683" d="M101 0v550h530v-63h-446v-162h270v-63h-270v-199h474v-63h-558zM300 615l128 174h92l-163 -174h-57z" />
<glyph unicode="&#xca;" horiz-adv-x="683" d="M101 0v550h530v-63h-446v-162h270v-63h-270v-199h474v-63h-558zM207 615l122 174h93l122 -174h-56l-112 131l-113 -131h-56z" />
<glyph unicode="&#xcb;" horiz-adv-x="683" d="M101 0v550h530v-63h-446v-162h270v-63h-270v-199h474v-63h-558zM224 694q0 19 16 32t39 13t38.5 -13t15.5 -32t-15.5 -32t-38.5 -13t-39 13t-16 32zM420 694q0 19 16 32t38 13q23 0 39 -13t16 -32t-16 -32t-39 -13q-22 0 -38 13t-16 32z" />
<glyph unicode="&#xcc;" horiz-adv-x="289" d="M1 789h92l128 -174h-56zM102 0v550h86v-550h-86z" />
<glyph unicode="&#xcd;" horiz-adv-x="289" d="M69 615l128 174h92l-163 -174h-57zM102 0v550h86v-550h-86z" />
<glyph unicode="&#xce;" horiz-adv-x="289" d="M-24 615l122 174h93l122 -174h-56l-112 131l-113 -131h-56zM102 0v550h86v-550h-86z" />
<glyph unicode="&#xcf;" horiz-adv-x="289" d="M-8 694q0 19 16 32t39 13t38.5 -13t15.5 -32t-15.5 -32t-38.5 -13t-39 13t-16 32zM102 0v550h86v-550h-86zM188 694q0 19 16 32t38 13q23 0 39 -13t16 -32t-16 -32t-39 -13q-22 0 -38 13t-16 32z" />
<glyph unicode="&#xd0;" horiz-adv-x="836" d="M1 272v57h145v221h289q161 0 257.5 -78t96.5 -199t-94.5 -197t-259.5 -76h-289v272h-145zM230 63h205q127 0 197 58t70 153h1q0 95 -72 154t-196 59h-205v-158h236v-57h-236v-209z" />
<glyph unicode="&#xd1;" horiz-adv-x="766" d="M101 0v550h44l437 -411v411h84v-550h-42l-439 411v-411h-84zM207 644q28 91 119 91q19 0 32 -4l59 -15q21 -6 34 -6q38 0 59 36h50q-32 -91 -116 -91q-20 0 -40 6l-59 15q-18 4 -33 4q-36 0 -56 -36h-49z" />
<glyph unicode="&#xd2;" horiz-adv-x="793" d="M47 273q0 126 99 207.5t250 81.5t250.5 -81.5t99.5 -207.5q0 -125 -99 -206t-251 -81q-151 0 -250 81t-99 206zM134 273q0 -97 74.5 -160t187.5 -63t188 63t75 160q0 98 -74.5 161.5t-188.5 63.5q-113 0 -187.5 -63.5t-74.5 -161.5zM253 789h92l128 -174h-56z" />
<glyph unicode="&#xd3;" horiz-adv-x="793" d="M47 273q0 126 99 207.5t250 81.5t250.5 -81.5t99.5 -207.5q0 -125 -99 -206t-251 -81q-151 0 -250 81t-99 206zM134 273q0 -97 74.5 -160t187.5 -63t188 63t75 160q0 98 -74.5 161.5t-188.5 63.5q-113 0 -187.5 -63.5t-74.5 -161.5zM321 615l128 174h92l-163 -174h-57z " />
<glyph unicode="&#xd4;" horiz-adv-x="793" d="M47 273q0 126 99 207.5t250 81.5t250.5 -81.5t99.5 -207.5q0 -125 -99 -206t-251 -81q-151 0 -250 81t-99 206zM134 273q0 -97 74.5 -160t187.5 -63t188 63t75 160q0 98 -74.5 161.5t-188.5 63.5q-113 0 -187.5 -63.5t-74.5 -161.5zM228 615l122 174h93l122 -174h-56 l-112 131l-113 -131h-56z" />
<glyph unicode="&#xd5;" horiz-adv-x="793" d="M47 273q0 126 99 207.5t250 81.5t250.5 -81.5t99.5 -207.5q0 -125 -99 -206t-251 -81q-151 0 -250 81t-99 206zM134 273q0 -97 74.5 -160t187.5 -63t188 63t75 160q0 98 -74.5 161.5t-188.5 63.5q-113 0 -187.5 -63.5t-74.5 -161.5zM221 644q28 91 119 91q19 0 32 -4 l59 -15q21 -6 34 -6q38 0 59 36h50q-32 -91 -116 -91q-21 0 -40 6l-59 15q-18 4 -33 4q-36 0 -56 -36h-49z" />
<glyph unicode="&#xd6;" horiz-adv-x="793" d="M47 273q0 126 99 207.5t250 81.5t250.5 -81.5t99.5 -207.5q0 -125 -99 -206t-251 -81q-151 0 -250 81t-99 206zM134 273q0 -97 74.5 -160t187.5 -63t188 63t75 160q0 98 -74.5 161.5t-188.5 63.5q-113 0 -187.5 -63.5t-74.5 -161.5zM244 694q0 19 16 32t39 13t38.5 -13 t15.5 -32t-15.5 -32t-38.5 -13t-39 13t-16 32zM440 694q0 19 16 32t38 13q23 0 39 -13t16 -32t-16 -32t-39 -13q-22 0 -38 13t-16 32z" />
<glyph unicode="&#xd7;" horiz-adv-x="1041" d="M186 64l294 240l-294 240l43 34l293 -239l294 239l43 -34l-294 -240l294 -240l-43 -34l-293 239l-294 -239z" />
<glyph unicode="&#xd8;" horiz-adv-x="793" d="M47 273q0 126 99 207.5t250 81.5q93 0 174 -36l42 50h97l-75 -86q112 -81 112 -217q0 -125 -99 -206t-251 -81q-91 0 -173 35l-43 -50h-96l75 87q-112 80 -112 215zM134 273q0 -91 75 -160l315 359q-62 26 -128 26q-113 0 -187.5 -63.5t-74.5 -161.5zM269 74 q59 -24 127 -24q113 0 188 63t75 160q0 93 -74 161z" />
<glyph unicode="&#xd9;" horiz-adv-x="724" d="M84 175v375h83v-356q0 -86 39.5 -115t154.5 -29t154.5 29t39.5 115v356h84v-375q0 -101 -64.5 -145t-213.5 -44q-148 0 -212.5 44t-64.5 145zM219 789h92l128 -174h-56z" />
<glyph unicode="&#xda;" horiz-adv-x="724" d="M84 175v375h83v-356q0 -86 39.5 -115t154.5 -29t154.5 29t39.5 115v356h84v-375q0 -101 -64.5 -145t-213.5 -44q-148 0 -212.5 44t-64.5 145zM287 615l128 174h92l-163 -174h-57z" />
<glyph unicode="&#xdb;" horiz-adv-x="724" d="M84 175v375h83v-356q0 -86 39.5 -115t154.5 -29t154.5 29t39.5 115v356h84v-375q0 -101 -64.5 -145t-213.5 -44q-148 0 -212.5 44t-64.5 145zM194 615l122 174h93l122 -174h-56l-112 131l-113 -131h-56z" />
<glyph unicode="&#xdc;" horiz-adv-x="724" d="M84 175v375h83v-356q0 -86 39.5 -115t154.5 -29t154.5 29t39.5 115v356h84v-375q0 -101 -64.5 -145t-213.5 -44q-148 0 -212.5 44t-64.5 145zM210 694q0 19 16 32t39 13t38.5 -13t15.5 -32t-15.5 -32t-38.5 -13t-39 13t-16 32zM406 694q0 19 16 32t38 13q23 0 39 -13 t16 -32t-16 -32t-39 -13q-22 0 -38 13t-16 32z" />
<glyph unicode="&#xdd;" horiz-adv-x="568" d="M-63 550h105l242 -217l240 217h106l-305 -276v-274h-84v275zM207 615l128 174h92l-163 -174h-57z" />
<glyph unicode="&#xde;" horiz-adv-x="733" d="M97 0v550h84v-107h303q99 0 155 -40.5t56 -112.5q0 -68 -53.5 -112t-146.5 -44h-314v-134h-84zM181 197h298q128 0 128 91h1q0 43 -32.5 67t-92.5 24h-302v-182z" />
<glyph unicode="&#xdf;" horiz-adv-x="1238" d="M44 54l40 56q113 -62 238 -62q72 0 114 23.5t42 59.5q0 37 -40 54t-123 19q-131 2 -190 24.5t-59 86.5q0 54 57.5 88t157.5 34q134 0 253 -62l-41 -55q-103 56 -213 56q-60 0 -95.5 -17t-35.5 -44q0 -30 38 -41t124 -11q252 0 252 -137q0 -58 -63.5 -98.5t-168.5 -40.5 q-158 0 -287 67zM663 54l40 56q113 -62 238 -62q72 0 114 23.5t42 59.5q0 37 -40 54t-123 19q-131 2 -190 24.5t-59 86.5q0 54 57.5 88t157.5 34q134 0 253 -62l-41 -55q-103 56 -213 56q-60 0 -95.5 -17t-35.5 -44q0 -30 38 -41t124 -11q252 0 252 -137q0 -58 -63.5 -98.5 t-168.5 -40.5q-158 0 -287 67z" />
<glyph unicode="&#xe0;" horiz-adv-x="561" d="M-11 0l265 425h51l268 -425h-88l-67 108h-275l-68 -108h-86zM138 666h92l128 -174h-56zM177 164h204l-101 163z" />
<glyph unicode="&#xe1;" horiz-adv-x="561" d="M-11 0l265 425h51l268 -425h-88l-67 108h-275l-68 -108h-86zM177 164h204l-101 163zM205 492l128 174h92l-163 -174h-57z" />
<glyph unicode="&#xe2;" horiz-adv-x="561" d="M-11 0l265 425h51l268 -425h-88l-67 108h-275l-68 -108h-86zM113 492l122 174h93l122 -174h-56l-112 131l-113 -131h-56zM177 164h204l-101 163z" />
<glyph unicode="&#xe3;" horiz-adv-x="561" d="M-11 0l265 425h51l268 -425h-88l-67 108h-275l-68 -108h-86zM105 521q28 91 119 91q19 0 32 -4l59 -15q21 -6 34 -6q38 0 59 36h50q-32 -91 -116 -91q-20 0 -40 6l-59 15q-18 4 -33 4q-36 0 -56 -36h-49zM177 164h204l-101 163z" />
<glyph unicode="&#xe4;" horiz-adv-x="561" d="M-11 0l265 425h51l268 -425h-88l-67 108h-275l-68 -108h-86zM129 571q0 19 16 32t39 13q22 0 38 -13t16 -32t-16 -32t-38 -13q-23 0 -39 13t-16 32zM177 164h204l-101 163zM325 571q0 19 16 32t38 13q23 0 39 -13t16 -32t-16 -32t-39 -13q-22 0 -38 13t-16 32z" />
<glyph unicode="&#xe5;" horiz-adv-x="561" d="M-11 0l265 425h51l268 -425h-88l-67 108h-275l-68 -108h-86zM155 566q0 42 36 71.5t88 29.5t89 -29.5t37 -71.5q0 -43 -36.5 -73t-88.5 -30q-53 0 -89 30t-36 73zM177 164h204l-101 163zM202 565q0 -27 22.5 -45.5t54.5 -18.5t55 18.5t23 45.5q0 26 -22.5 44.5 t-54.5 18.5q-33 0 -55.5 -18.5t-22.5 -44.5z" />
<glyph unicode="&#xe6;" horiz-adv-x="1013" d="M-10 0l300 425h675v-62h-410v-106h266v-61h-266v-135h430v-61h-511v108h-320l-76 -108h-88zM196 164h278v199h-138z" />
<glyph unicode="&#xe7;" horiz-adv-x="689" d="M44 211q0 97 88.5 161.5t226.5 64.5q178 0 267 -100l-65 -37q-66 75 -202 75q-101 0 -166.5 -46.5t-65.5 -116.5t66 -116.5t166 -46.5q136 0 216 92l65 -37q-92 -117 -281 -117h-14v-42h13q64 0 98.5 -22.5t34.5 -63.5q0 -42 -35 -64.5t-103 -22.5q-63 0 -154 20v38 q97 -18 144 -18q80 0 80 45q0 28 -21 40t-66 12q-19 0 -29 -1v82q-118 12 -190.5 73t-72.5 148z" />
<glyph unicode="&#xe8;" horiz-adv-x="628" d="M89 0v425h489v-62h-408v-106h268v-61h-268v-135h430v-61h-511zM194 666h92l128 -174h-56z" />
<glyph unicode="&#xe9;" horiz-adv-x="628" d="M89 0v425h489v-62h-408v-106h268v-61h-268v-135h430v-61h-511zM262 492l128 174h92l-163 -174h-57z" />
<glyph unicode="&#xea;" horiz-adv-x="628" d="M89 0v425h489v-62h-408v-106h268v-61h-268v-135h430v-61h-511zM169 492l122 174h93l122 -174h-56l-112 131l-113 -131h-56z" />
<glyph unicode="&#xeb;" horiz-adv-x="628" d="M89 0v425h489v-62h-408v-106h268v-61h-268v-135h430v-61h-511zM185 571q0 19 16 32t39 13q22 0 38 -13t16 -32t-16 -32t-38 -13q-23 0 -39 13t-16 32zM381 571q0 19 15.5 32t38.5 13t39 -13t16 -32t-16 -32t-39 -13t-38.5 13t-15.5 32z" />
<glyph unicode="&#xec;" horiz-adv-x="264" d="M-11 666h92l128 -174h-56zM90 0v425h83v-425h-83z" />
<glyph unicode="&#xed;" horiz-adv-x="264" d="M56 492l128 174h92l-163 -174h-57zM90 0v425h83v-425h-83z" />
<glyph unicode="&#xee;" horiz-adv-x="264" d="M-36 492l122 174h93l122 -174h-56l-112 131l-113 -131h-56zM90 0v425h83v-425h-83z" />
<glyph unicode="&#xef;" horiz-adv-x="264" d="M-20 571q0 19 16 32t39 13t38.5 -13t15.5 -32t-15.5 -32t-38.5 -13t-39 13t-16 32zM90 0v425h83v-425h-83zM176 571q0 19 16 32t38 13q23 0 39 -13t16 -32t-16 -32t-39 -13q-22 0 -38 13t-16 32z" />
<glyph unicode="&#xf0;" horiz-adv-x="645" d="M0 201v56h90v168h231q130 0 207 -60t77 -154t-75.5 -152.5t-208.5 -58.5h-231v201h-90zM171 61h151q95 0 147 41.5t52 109.5q0 66 -54 109t-144 43h-152v-107h181v-56h-181v-140z" />
<glyph unicode="&#xf1;" horiz-adv-x="634" d="M90 0v425h42l332 -299v299h80v-425h-43l-331 298v-298h-80zM141 521q28 91 119 91q19 0 32 -4l59 -15q21 -6 34 -6q38 0 59 36h50q-32 -91 -116 -91q-20 0 -40 6l-59 15q-18 4 -33 4q-36 0 -56 -36h-49z" />
<glyph unicode="&#xf2;" horiz-adv-x="726" d="M44 212q0 97 88.5 161t229.5 64q143 0 232 -64t89 -161q0 -96 -89 -160.5t-231 -64.5q-141 0 -230 64.5t-89 160.5zM127 212q0 -70 65 -116.5t170 -46.5q107 0 172 46.5t65 116.5t-65.5 116.5t-170.5 46.5q-106 0 -171 -46.5t-65 -116.5zM220 666h92l128 -174h-56z" />
<glyph unicode="&#xf3;" horiz-adv-x="726" d="M44 212q0 97 88.5 161t229.5 64q143 0 232 -64t89 -161q0 -96 -89 -160.5t-231 -64.5q-141 0 -230 64.5t-89 160.5zM127 212q0 -70 65 -116.5t170 -46.5q107 0 172 46.5t65 116.5t-65.5 116.5t-170.5 46.5q-106 0 -171 -46.5t-65 -116.5zM288 492l128 174h92l-163 -174 h-57z" />
<glyph unicode="&#xf4;" horiz-adv-x="726" d="M44 212q0 97 88.5 161t229.5 64q143 0 232 -64t89 -161q0 -96 -89 -160.5t-231 -64.5q-141 0 -230 64.5t-89 160.5zM127 212q0 -70 65 -116.5t170 -46.5q107 0 172 46.5t65 116.5t-65.5 116.5t-170.5 46.5q-106 0 -171 -46.5t-65 -116.5zM195 492l122 174h93l122 -174 h-56l-112 131l-113 -131h-56z" />
<glyph unicode="&#xf5;" horiz-adv-x="726" d="M44 212q0 97 88.5 161t229.5 64q143 0 232 -64t89 -161q0 -96 -89 -160.5t-231 -64.5q-141 0 -230 64.5t-89 160.5zM127 212q0 -70 65 -116.5t170 -46.5q107 0 172 46.5t65 116.5t-65.5 116.5t-170.5 46.5q-106 0 -171 -46.5t-65 -116.5zM188 521q28 91 119 91 q19 0 32 -4l59 -15q21 -6 34 -6q38 0 59 36h50q-32 -91 -116 -91q-21 0 -40 6l-59 15q-18 4 -33 4q-37 0 -56 -36h-49z" />
<glyph unicode="&#xf6;" horiz-adv-x="726" d="M44 212q0 97 88.5 161t229.5 64q143 0 232 -64t89 -161q0 -96 -89 -160.5t-231 -64.5q-141 0 -230 64.5t-89 160.5zM127 212q0 -70 65 -116.5t170 -46.5q107 0 172 46.5t65 116.5t-65.5 116.5t-170.5 46.5q-106 0 -171 -46.5t-65 -116.5zM212 571q0 19 16 32t39 13 t38.5 -13t15.5 -32t-15.5 -32t-38.5 -13t-39 13t-16 32zM408 571q0 19 16 32t38 13q23 0 39 -13t16 -32t-16 -32t-39 -13q-22 0 -38 13t-16 32z" />
<glyph unicode="&#xf7;" horiz-adv-x="1041" d="M155 279v49h731v-49h-731zM456 129q0 22 19.5 37.5t45.5 15.5q27 0 46 -15.5t19 -37.5t-18.5 -38t-46.5 -16q-27 0 -46 16t-19 38zM456 479q0 22 19.5 38t45.5 16q27 0 46 -16t19 -38t-18.5 -37.5t-46.5 -15.5t-46.5 15.5t-18.5 37.5z" />
<glyph unicode="&#xf8;" horiz-adv-x="668" d="M39 -19l84 78q-69 65 -69 153q0 98 79.5 161.5t200.5 63.5q83 0 156 -35l42 42h97l-84 -80q69 -66 69 -152q0 -97 -79.5 -161t-200.5 -64q-85 0 -156 34l-43 -40h-96zM135 212q0 -58 40 -104l266 248q-45 23 -107 23q-86 0 -142.5 -47t-56.5 -120zM227 68q47 -22 107 -22 q87 0 143.5 47t56.5 119q0 61 -41 105z" />
<glyph unicode="&#xf9;" horiz-adv-x="695" d="M90 135v290h81v-273q0 -62 36 -83t140 -21q105 0 141 21t36 83v273h81v-290q0 -79 -61 -113.5t-198 -34.5t-196.5 34.5t-59.5 113.5zM204 666h92l128 -174h-56z" />
<glyph unicode="&#xfa;" horiz-adv-x="695" d="M90 135v290h81v-273q0 -62 36 -83t140 -21q105 0 141 21t36 83v273h81v-290q0 -79 -61 -113.5t-198 -34.5t-196.5 34.5t-59.5 113.5zM271 492l128 174h92l-163 -174h-57z" />
<glyph unicode="&#xfb;" horiz-adv-x="695" d="M90 135v290h81v-273q0 -62 36 -83t140 -21q105 0 141 21t36 83v273h81v-290q0 -79 -61 -113.5t-198 -34.5t-196.5 34.5t-59.5 113.5zM179 492l122 174h93l122 -174h-56l-112 131l-113 -131h-56z" />
<glyph unicode="&#xfc;" horiz-adv-x="695" d="M90 135v290h81v-273q0 -62 36 -83t140 -21q105 0 141 21t36 83v273h81v-290q0 -79 -61 -113.5t-198 -34.5t-196.5 34.5t-59.5 113.5zM195 571q0 19 16 32t39 13q22 0 38 -13t16 -32t-16 -32t-38 -13q-23 0 -39 13t-16 32zM391 571q0 19 15.5 32t38.5 13t39 -13t16 -32 t-16 -32t-39 -13t-38.5 13t-15.5 32z" />
<glyph unicode="&#xfd;" horiz-adv-x="559" d="M1 425h105l173 -151l170 151h109l-239 -207v-218h-80v217zM204 492l128 174h92l-163 -174h-57z" />
<glyph unicode="&#xfe;" horiz-adv-x="665" d="M90 0v425h81v-83h298q80 0 125 -31t45 -87q0 -52 -43.5 -86.5t-117.5 -34.5h-307v-103h-81zM171 165h298q86 0 86 58q0 57 -82 57h-302v-115z" />
<glyph unicode="&#xff;" horiz-adv-x="559" d="M1 425h105l173 -151l170 151h109l-239 -207v-218h-80v217zM127 571q0 19 16 32t39 13q22 0 38 -13t16 -32t-16 -32t-38 -13q-23 0 -39 13t-16 32zM323 571q0 19 15.5 32t38.5 13t39 -13t16 -32t-16 -32t-39 -13t-38.5 13t-15.5 32z" />
<glyph unicode="&#x152;" horiz-adv-x="1233" d="M47 273q0 126 99 207.5t250 81.5q159 0 256 -98v86h532v-63h-447v-162h271v-63h-271v-199h474v-63h-558v83q-94 -97 -257 -97q-151 0 -250 81t-99 206zM134 273q0 -97 74.5 -160t187.5 -63t188 63t75 160q0 98 -74.5 161.5t-188.5 63.5q-113 0 -187.5 -63.5t-74.5 -161.5 z" />
<glyph unicode="&#x153;" horiz-adv-x="1134" d="M44 212q0 98 89.5 161.5t237.5 63.5q134 0 224 -68v56h490v-62h-409v-106h268v-61h-268v-135h430v-61h-511v55q-92 -68 -232 -68q-141 0 -230 64.5t-89 160.5zM127 212q0 -70 65 -116.5t170 -46.5q107 0 172 46.5t65 116.5t-65.5 116.5t-170.5 46.5q-106 0 -171 -46.5 t-65 -116.5z" />
<glyph unicode="&#x178;" horiz-adv-x="568" d="M-63 550h105l242 -217l240 217h106l-305 -276v-274h-84v275zM131 694q0 19 16 32t39 13q22 0 38 -13t16 -32t-16 -32t-38 -13q-23 0 -39 13t-16 32zM327 694q0 19 15.5 32t38.5 13t39 -13t16 -32t-16 -32t-39 -13t-38.5 13t-15.5 32z" />
<glyph unicode="&#x2c6;" d="M144 492l122 174h93l122 -174h-56l-112 131l-113 -131h-56z" />
<glyph unicode="&#x2dc;" d="M136 521q28 91 119 91q19 0 32 -4l59 -15q21 -6 34 -6q38 0 59 36h50q-32 -91 -116 -91q-21 0 -40 6l-59 15q-18 4 -33 4q-37 0 -56 -36h-49z" />
<glyph unicode="&#x2000;" horiz-adv-x="420" />
<glyph unicode="&#x2001;" horiz-adv-x="841" />
<glyph unicode="&#x2002;" horiz-adv-x="420" />
<glyph unicode="&#x2003;" horiz-adv-x="841" />
<glyph unicode="&#x2004;" horiz-adv-x="280" />
<glyph unicode="&#x2005;" horiz-adv-x="210" />
<glyph unicode="&#x2006;" horiz-adv-x="140" />
<glyph unicode="&#x2007;" horiz-adv-x="140" />
<glyph unicode="&#x2008;" horiz-adv-x="105" />
<glyph unicode="&#x2009;" horiz-adv-x="168" />
<glyph unicode="&#x200a;" horiz-adv-x="46" />
<glyph unicode="&#x2010;" horiz-adv-x="321" d="M29 244v60h264v-60h-264z" />
<glyph unicode="&#x2011;" horiz-adv-x="321" d="M29 244v60h264v-60h-264z" />
<glyph unicode="&#x2012;" horiz-adv-x="321" d="M29 244v60h264v-60h-264z" />
<glyph unicode="&#x2013;" d="M0 253v42h625v-42h-625z" />
<glyph unicode="&#x2014;" horiz-adv-x="1250" d="M0 253v42h1250v-42h-1250z" />
<glyph unicode="&#x2018;" horiz-adv-x="416" d="M151 430q0 57 91 132l24 -17q-37 -44 -55 -88h5q18 0 31 -12.5t13 -32.5q0 -21 -14.5 -34.5t-36.5 -13.5q-25 0 -41.5 17.5t-16.5 48.5z" />
<glyph unicode="&#x2019;" horiz-adv-x="416" d="M151 381q37 44 54 88h-6q-18 0 -30.5 12.5t-12.5 31.5q0 22 15 35.5t38 13.5q24 0 40.5 -17.5t16.5 -49.5q0 -56 -92 -131z" />
<glyph unicode="&#x201a;" horiz-adv-x="416" d="M151 -87q39 46 54 87h-5q-18 0 -31 12.5t-13 32.5q0 21 15 35t38 14q24 0 40.5 -18t16.5 -49q0 -56 -92 -131z" />
<glyph unicode="&#x201c;" horiz-adv-x="619" d="M151 430q0 57 91 132l24 -17q-37 -44 -55 -88h5q18 0 31 -12.5t13 -32.5q0 -21 -14.5 -34.5t-36.5 -13.5q-25 0 -41.5 17.5t-16.5 48.5zM354 430q0 57 91 132l24 -17q-40 -48 -55 -88h5q18 0 31 -12.5t13 -32.5q0 -21 -14.5 -34.5t-37.5 -13.5q-24 0 -40.5 17.5 t-16.5 48.5z" />
<glyph unicode="&#x201d;" horiz-adv-x="619" d="M151 381q37 44 54 88h-6q-18 0 -30.5 12.5t-12.5 31.5q0 22 15 35.5t38 13.5q24 0 40.5 -17.5t16.5 -49.5q0 -56 -92 -131zM354 381q34 40 54 88h-7q-18 0 -30 12.5t-12 31.5q0 22 14.5 35.5t37.5 13.5q25 0 41.5 -17.5t16.5 -49.5q0 -56 -93 -131z" />
<glyph unicode="&#x201e;" horiz-adv-x="619" d="M151 -88q38 45 54 88h-6q-18 0 -30.5 12t-12.5 32q0 21 15 35t38 14q24 0 40.5 -18t16.5 -49q0 -56 -92 -131zM354 -88q35 42 54 88h-7q-18 0 -30 12t-12 32q0 21 15 35t37 14q24 0 41 -18t17 -49q0 -56 -93 -131z" />
<glyph unicode="&#x2022;" horiz-adv-x="738" d="M187 379q0 61 53.5 104t128.5 43q74 0 127 -43t53 -104q0 -60 -53 -103.5t-128 -43.5t-128 43t-53 104z" />
<glyph unicode="&#x2026;" horiz-adv-x="1250" d="M157 31q0 20 15.5 33t36.5 13t35.5 -13t14.5 -33t-14.5 -32.5t-35.5 -12.5q-22 0 -37 12.5t-15 32.5zM574 31q0 20 15 33t36 13t35.5 -13t14.5 -33q0 -21 -14 -33t-36 -12q-21 0 -36 12.5t-15 32.5zM991 31q0 20 15 33t36 13t36 -13t15 -33t-14.5 -32.5t-35.5 -12.5 q-22 0 -37 12.5t-15 32.5z" />
<glyph unicode="&#x202f;" horiz-adv-x="168" />
<glyph unicode="&#x2039;" horiz-adv-x="255" d="M29 162v99l197 122v-73l-155 -98l155 -100v-70z" />
<glyph unicode="&#x203a;" horiz-adv-x="255" d="M29 42v70l155 100l-155 98v73l197 -122v-99z" />
<glyph unicode="&#x205f;" horiz-adv-x="210" />
<glyph unicode="&#x20ac;" horiz-adv-x="704" d="M34 181q28 51 29 52h51q-4 12 -4 31q0 16 4 28h-80q21 40 29 52h57q23 84 98.5 137t209.5 53q121 0 195 -37v-69q-71 44 -187 44q-93 0 -150 -36t-73 -92h361l-28 -52h-346q-4 -18 -4 -28q0 -13 4 -31h313q-23 -46 -27 -52h-272q16 -61 73.5 -96t151.5 -35q104 0 184 44 v-70q-63 -35 -195 -35q-125 0 -205.5 49t-102.5 143h-86z" />
<glyph unicode="&#x2122;" horiz-adv-x="1041" d="M161 672v28h263v-28h-105v-235h-50v235h-108zM501 437v263h71l102 -210l95 210h71v-263h-44v232l-107 -232h-30l-114 232v-232h-44z" />
<glyph unicode="&#xe000;" horiz-adv-x="425" d="M0 0v425h425v-425h-425z" />
<glyph unicode="&#xfb01;" horiz-adv-x="852" d="M89 0v425h481v-62h-400v-106h259v-61h-259v-196h-81zM678 0v425h83v-425h-83z" />
<glyph unicode="&#xfb02;" horiz-adv-x="1149" d="M89 0v425h481v-62h-400v-106h259v-61h-259v-196h-81zM677 0v425h81v-364h388v-61h-469z" />
</font>
</defs>
</svg>
