<?xml version="1.0" encoding="iso-8859-1"?>
<!-- Generator: Adobe Illustrator 18.0.0, SVG Export Plug-In . SVG Version: 6.00 Build 0)  -->
<!DOCTYPE svg PUBLIC "-//W3C//DTD SVG 1.1//EN" "http://www.w3.org/Graphics/SVG/1.1/DTD/svg11.dtd">
<svg version="1.1" id="arrow-nav-down-1" xmlns="http://www.w3.org/2000/svg" xmlns:xlink="http://www.w3.org/1999/xlink" x="0px"
	 y="0px" viewBox="0 0 18 18" style="enable-background:new 0 0 18 18;" xml:space="preserve">
<path style="fill:#FFFFFF;" d="M3.179,3.3c-3.125,3.125-3.125,8.192-0.001,11.319c3.127,3.124,8.195,3.124,11.321-0.001
	c3.127-3.127,3.127-8.193,0-11.318C11.373,0.173,6.305,0.173,3.179,3.3z M10.703,4.37c0.391,0.393,0.389,1.025,0,1.416L7.518,8.968
	l3.185,3.183c0.389,0.392,0.391,1.023,0.001,1.416c-0.394,0.391-1.025,0.39-1.417,0l-3.185-3.185L5.427,9.706L5.352,9.632
	C5.194,9.454,5.089,9.226,5.089,8.968c0-0.256,0.104-0.483,0.262-0.66L5.429,8.23l0.676-0.674L9.288,4.37
	C9.679,3.982,10.311,3.98,10.703,4.37z"/>
</svg>
