<?xml version="1.0" encoding="iso-8859-1"?>
<!-- Generator: Adobe Illustrator 18.0.0, SVG Export Plug-In . SVG Version: 6.00 Build 0)  -->
<!DOCTYPE svg PUBLIC "-//W3C//DTD SVG 1.1//EN" "http://www.w3.org/Graphics/SVG/1.1/DTD/svg11.dtd">
<svg version="1.1" id="arrow-nav-down-1" xmlns="http://www.w3.org/2000/svg" xmlns:xlink="http://www.w3.org/1999/xlink" x="0px"
	 y="0px" viewBox="0 0 18 18" style="enable-background:new 0 0 18 18;" xml:space="preserve">
<path style="fill:#FFFFFF;" d="M14.498,3.298C11.373,0.173,6.305,0.173,3.178,3.297c-3.124,3.127-3.124,8.195,0.001,11.321
	c3.127,3.127,8.193,3.127,11.318,0C17.625,11.493,17.625,6.424,14.498,3.298z M13.427,10.823c-0.393,0.391-1.025,0.389-1.416,0
	L8.83,7.638l-3.183,3.185c-0.392,0.389-1.023,0.391-1.416,0.001c-0.391-0.394-0.39-1.025,0-1.417l3.185-3.185l0.676-0.677
	l0.074-0.074C8.343,5.314,8.572,5.208,8.83,5.208c0.256,0,0.483,0.104,0.66,0.262l0.078,0.078l0.674,0.676l3.186,3.184
	C13.816,9.798,13.818,10.43,13.427,10.823z"/>
</svg>
