<?xml version="1.0" encoding="utf-8"?>
<!-- Generator: Adobe Illustrator 18.0.0, SVG Export Plug-In . SVG Version: 6.00 Build 0)  -->
<!DOCTYPE svg PUBLIC "-//W3C//DTD SVG 1.1//EN" "http://www.w3.org/Graphics/SVG/1.1/DTD/svg11.dtd">
<svg version="1.1" id="Layer_1" xmlns="http://www.w3.org/2000/svg" xmlns:xlink="http://www.w3.org/1999/xlink" x="0px" y="0px"
	 viewBox="0 0 539 47" enable-background="new 0 0 539 47" xml:space="preserve">
<g>
	<path d="M19.1,22.5v16h1.5v0.8h-9v-0.8h1.5V5.2h-1.5V4.4h10.6c0.8,0,3.5-0.2,5,0.8c1.7,1.1,2.2,2.5,2.2,4.3v8.3
		c0,0.9-0.2,2.4-1.9,3.5c-1.6,1-4.2,1.3-6.3,1.3H19.1z M23.3,7.5c0-0.7,0-1.2-0.4-1.7c-0.4-0.5-1.1-0.6-2-0.6h-1.8v16.6h2.2
		c0.7,0,1.2-0.2,1.6-0.7c0.4-0.5,0.3-1.3,0.3-1.8V7.5z"/>
	<path d="M74.9,34.5c0,3.2-2.1,5.2-7.6,5.2c-6,0-7.6-2-7.6-5.2V13.3c0-3.7,2.6-5.7,7.7-5.7c4.9,0,7.5,2.4,7.5,5.7V34.5z M69.4,10.6
		c0-1.8-0.7-2.5-2-2.4c-1.5,0-2.3,0.6-2.3,2.4v26c0,1.3,0.4,2.3,2.1,2.3c1.6,0,2.2-0.6,2.2-2.3V10.6z"/>
	<polygon points="123.4,7.9 123.4,14.2 122.6,14.2 122.6,9.3 118,9.3 118,38.6 119.3,38.6 119.3,39.3 111.2,39.3 111.2,38.6 
		112.5,38.6 112.5,9.3 107.9,9.3 107.9,14.2 107.1,14.2 107.1,7.9 	"/>
	<polygon points="172,7.9 172,14.2 171.1,14.2 171.1,9.3 166.5,9.3 166.5,38.6 167.8,38.6 167.8,39.3 159.7,39.3 159.7,38.6 
		161,38.6 161,9.3 156.4,9.3 156.4,14.2 155.6,14.2 155.6,7.9 	"/>
	<polygon points="210.8,22.6 216.8,22.6 216.8,19.9 217.6,19.9 217.6,26.8 216.8,26.8 216.8,24 210.8,24 210.8,37.9 216.8,37.9 
		216.8,33.2 217.6,33.2 217.6,39.3 204,39.3 204,38.6 205.3,38.6 205.3,8.6 204,8.6 204,7.9 217.6,7.9 217.6,14 216.8,14 216.8,9.3 
		210.8,9.3 	"/>
	<path d="M261.8,23.2c0,0.2,2,0.4,3.4,1.3c1.4,1,1.6,2,1.6,3.4v10.7h1.3v0.7h-6.8V26.8c0-1,0.2-1.9-0.7-2.5
		c-0.6-0.4-1.7-0.3-2.3-0.3h-1.8v14.7h1.3v0.7h-8.1v-0.7h1.3v-30h-1.3V7.9h9.5c0.7,0,3.1-0.2,4.5,0.7c1.5,1,1.9,2.2,1.9,3.8v6.7
		c0,0.3,0.1,1.8-1.1,2.9C263.3,23,261.8,23.1,261.8,23.2 M260.1,10.6c0-0.6,0.1-1-0.3-1.5c-0.5-0.5-1.1-0.5-1.7-0.5h-1.7v14.7h2
		c0.6,0,1.1-0.2,1.5-0.6c0.4-0.5,0.3-1.2,0.3-1.6V10.6z"/>
	<polygon points="303.2,28.1 297.5,8.6 296.1,8.6 296.1,7.9 304.3,7.9 304.3,8.6 303,8.6 307.8,25.1 312.1,8.6 310.7,8.6 310.7,7.9 
		315.1,7.9 315.1,8.6 313.8,8.6 308.7,28.1 308.7,38.6 310,38.6 310,39.3 301.9,39.3 301.9,38.6 303.2,38.6 	"/>
	<path d="M366.1,26.4v7.9c0,1.4-0.1,2.3-1,3.4c-1.3,1.4-4.1,1.7-5.3,1.7h-13.2v-0.8h1.5V5.2h-1.5V4.4h12.6c1.6,0,2.7,0.3,3.9,1.2
		c1.9,1.5,1.7,3.3,1.7,3.3v8.4c0,0,0.1,1.7-1.2,2.7c-1.6,1.3-2.9,1.4-2.8,1.6c0,0.2,2.2,0.2,3.8,1.6
		C365.7,23.9,366.1,24.8,366.1,26.4 M354.2,38.5h3.3c0.1,0,1.2,0,1.8-0.4c0.6-0.5,0.8-1,0.8-1.7V24c0-0.5,0-1-0.4-1.3
		c-0.4-0.4-1-0.5-1.7-0.5h-3.8V38.5z M354.2,5.2v16h3.2c0.1,0,0.8,0,1.2-0.4c0.4-0.4,0.3-1,0.3-1.3V7.2c0-0.1,0.1-1.3-0.3-1.7
		c-0.3-0.4-1.7-0.4-1.8-0.4H354.2z"/>
	<path d="M406.7,8.6h-1.4V7.9h8.4v0.7h-1.5l5.5,30h1.3v0.7h-8.2v-0.7h1.1l-1.3-8.8h-6.7l-1.8,8.8h1.3v0.7h-4.3v-0.7h1.2L406.7,8.6z
		 M404.1,28.6h6.2l-2.9-17.1L404.1,28.6z"/>
	<path d="M463.2,23.2c0,0.2,2,0.4,3.4,1.3c1.4,1,1.5,2,1.5,3.4v10.7h1.3v0.7h-6.8V26.8c0-1,0.2-1.9-0.7-2.5
		c-0.6-0.4-1.7-0.3-2.3-0.3h-1.8v14.7h1.3v0.7h-8.1v-0.7h1.3v-30h-1.3V7.9h9.5c0.7,0,3.1-0.2,4.5,0.7c1.5,1,1.9,2.2,1.9,3.8v6.7
		c0,0.3,0.1,1.8-1.1,2.9C464.7,23,463.2,23.1,463.2,23.2 M461.5,10.6c0-0.6,0.1-1-0.3-1.5c-0.5-0.5-1.1-0.5-1.7-0.5h-1.7v14.7h2
		c0.6,0,1.1-0.2,1.5-0.6c0.4-0.5,0.3-1.2,0.3-1.6V10.6z"/>
	<polygon points="511.1,39.3 504.5,13.2 504.5,38.6 505.8,38.6 505.8,39.3 501.5,39.3 501.5,38.6 502.9,38.6 502.9,8.6 501.5,8.6 
		501.5,7.9 508.4,7.9 515.3,35.1 515.3,8.6 513.9,8.6 513.9,7.9 518.2,7.9 518.2,8.6 516.9,8.6 516.9,39.3 	"/>
	<path d="M527.5,17c-2.4,0-4.3-1.5-4.3-4.4c0-2.9,1.9-4.4,4.3-4.4c2.4,0,4.2,1.5,4.2,4.4C531.8,15.4,529.9,17,527.5,17 M527.5,8.5
		c-2.2,0-3.8,1.4-3.8,4c0,2.7,1.6,4,3.8,4c2.2,0,3.8-1.4,3.8-4C531.4,9.9,529.7,8.5,527.5,8.5 M529,14.9l-1.5-2.1h-1v2.1h-0.4v-4.7
		h1.5c0.9,0,1.5,0.4,1.5,1.3c0,0.8-0.5,1.2-1.2,1.3l1.6,2.1H529z M527.6,10.6h-1.1v0.7v1.1h1.1c0.8,0,1.1-0.4,1.1-0.9
		C528.7,11,528.4,10.6,527.6,10.6"/>
</g>
</svg>
