<?xml version="1.0" encoding="utf-8"?>
<!-- Generator: Adobe Illustrator 18.0.0, SVG Export Plug-In . SVG Version: 6.00 Build 0)  -->
<!DOCTYPE svg PUBLIC "-//W3C//DTD SVG 1.1//EN" "http://www.w3.org/Graphics/SVG/1.1/DTD/svg11.dtd">
<svg version="1.1" id="Layer_1" xmlns="http://www.w3.org/2000/svg" xmlns:xlink="http://www.w3.org/1999/xlink" x="0px" y="0px"
	 viewBox="0 0 960 257" enable-background="new 0 0 960 257" xml:space="preserve">
<g>
	<g>
		<path d="M906.7,83.6c0-8.4-3.8-16.8-9.9-23.6c-6.9-6.9-16-10.7-25.9-10.7c-19,0-34.3,15.2-34.3,34.3c0,18.3,8.4,28.2,32,36.6
			c24.4,9.1,35.8,20.6,35.8,35.8c0,19-16,35-35,35c-9.1,0-17.5-3.8-24.4-10.7c-7.6-7.6-11.4-18.3-12.2-30.5h-7.6
			c0.8,14.5,6.1,26.7,14.5,35.8c8.4,8.4,19,13,29.7,13c11.4,0,22.1-4.6,29.7-12.2c8.4-8.4,12.2-19,12.2-29.7
			c0-24.4-22.9-36.6-40.4-42.7c-20.6-6.9-27.4-14.5-27.4-29c0-6.9,3-13.7,7.6-19c5.3-5.3,11.4-7.6,19-7.6c7.6,0,15.2,3,20.6,8.4
			s7.6,11.4,7.6,18.3h8.4V83.6z"/>
		<path d="M649.1,189.5c-35.8,0-65.5-29-65.5-65.5c0-35.8,29-65.5,65.5-65.5c25.9,0,48,15.2,58.7,36.6h9.1
			c-11.4-26.7-37.3-45-67.8-45c-40.4,0-73.9,32.8-73.9,73.9c0,40.4,32.8,73.9,73.9,73.9c30.5,0,57.1-19,67.8-45.7h-9.1
			C697.1,174.3,675,189.5,649.1,189.5z"/>
		<path d="M563,89.7c-12.2-23.6-37.3-39.6-65.5-39.6c-40.4,0-73.9,32.8-73.9,73.9c0,40.4,32.8,73.9,73.9,73.9
			c28.2,0,53.3-16,65.5-39.6v40.4h8.4V53.9H563V89.7z M497.5,189.5c-35.8,0-65.5-29-65.5-65.5c0-35.8,29-65.5,65.5-65.5
			c35.8,0,65.5,29,65.5,65.5C563,159.8,533.3,189.5,497.5,189.5z"/>
		<path d="M362.7,50.9c-22.9,0-42.7,14.5-51,34.3c-8.4-20.6-28.2-34.3-51-34.3c-19.8,0-37.3,10.7-46.5,25.9V53.9h-8.4v144h8.4v-97.5
			c2.3-23.6,22.1-41.9,46.5-41.9s44.2,19,46.5,42.7v96.8h8.4v-96.8c2.3-23.6,22.1-42.7,46.5-42.7c25.1,0,45.7,19.8,47.2,45l0,0v95.2
			h8.4v-95.2l0,0C416,73.7,391.6,50.9,362.7,50.9z"/>
		<polygon points="771.8,185 719.2,53.9 710.9,53.9 767.2,195.6 745.9,248.2 755,249 834.3,53.9 825.1,53.9 		"/>
		<polygon points="852.6,21.9 848.8,10.5 845,21.9 832.8,21.9 842.7,28.8 838.9,39.4 848.8,32.6 857.9,39.4 854.9,28.8 864,21.9 		
			"/>
		<polygon points="117.3,107.2 99,50.9 80.8,107.2 21.3,107.2 69.3,142.3 51,197.9 99,163.6 147,198.7 128.8,141.5 176.8,107.2 		
			"/>
	</g>
</g>
</svg>
