<?xml version="1.0" encoding="utf-8"?>
<!-- Generator: Adobe Illustrator 18.0.0, SVG Export Plug-In . SVG Version: 6.00 Build 0)  -->
<!DOCTYPE svg PUBLIC "-//W3C//DTD SVG 1.1//EN" "http://www.w3.org/Graphics/SVG/1.1/DTD/svg11.dtd">
<svg version="1.1" id="Layer_1" xmlns="http://www.w3.org/2000/svg" xmlns:xlink="http://www.w3.org/1999/xlink" x="0px" y="0px"
	 viewBox="0 0 960 84" enable-background="new 0 0 960 84" xml:space="preserve">
<path d="M318.1,70.6c0,0.3,0,0.5,0,0.6C318.1,71.1,318.1,70.9,318.1,70.6 M353.3,67.1c0,0.3,0,0.5,0,0.6
	C353.3,67.6,353.3,67.3,353.3,67.1 M511.5,45.3c6.6,0,13.2,0,19.6,0c0,2.5,0,5.2,0,7.7c-6.1,0-12.2,0-18.4,0c-0.9,0-1.4,0.5-1.4-0.6
	c-0.3,0-0.5,0-0.6,0C511.1,49.9,511.2,47.7,511.5,45.3 M906.5,29c-1.9,5.3-7.7,14.7-7.7,20.4c2.2,0,14.7,0.5,14.7-0.6
	c0.3,0,0.5,0,0.6,0C913.1,42.2,910.6,34.2,906.5,29 M325.2,28.4c-1.9,5.2-7.7,15.8-7.7,21.2c2.2,0,14.7,0.5,14.7-0.6
	c0.3,0,0.5,0,0.6,0C331.6,41.7,328.9,34.2,325.2,28.4 M760.3,13.6c0,0.3,0,0.5,0,0.6c-15.5,7.2-13.3,57.9,6.9,55.8
	c18.4-1.9,15.1-46.6,3.3-54.9C767.8,13.5,764.1,13.6,760.3,13.6 M624,13.6c0,0.3,0,0.5,0,0.6c-15.5,7.2-13.3,57.9,6.9,55.8
	c18.2-1.9,15.1-46.6,3.3-54.9C631.5,13.5,627.6,13.6,624,13.6 M288.6,11.5L288.6,11.5 M800.5,10c5.6,0,20.9-1.1,24.8,0.9
	c1.7,0.8,12.4,31.7,12.4,35c0.3,0,0.5,0,0.6,0c0-0.3,0-0.5,0-0.6c0.3,0,0.5,0,0.6,0c0.8-5,8.3-31.5,11.1-33.9c3-2.5,16.9-1.4,22-1.4
	c0.9,0,1.4-0.3,1.4,0.6c0.3,0,0.5,0,0.6,0c-0.3,1.1-0.5,2.4-0.6,3.5c-1.4,0.3-6.3,0.5-6.3,2c-1.9,4.2-1.1,47.2,0.9,50.8
	c0.9,1.7,4.9,1.9,6.9,1.9c0,1.1,0.5,3.5-0.6,3.5c0,0.3,0,0.5,0,0.6c-8.6,0-17.3,0-26,0c-0.9,0-2,0.5-2-0.6c-0.3,0-0.5,0-0.6,0
	c0-1.1,0-2.4,0-3.5c2.4-0.3,4.7-0.5,7.1-0.6c1.4-15.2,0.6-32,0.6-47.8c-0.3,0-0.5,0-0.6,0c0,0.3,0,0.5,0,0.6
	c-1.3,3.5-2.5,6.9-3.8,10.4c-3.1,9.3-5.8,18.8-8.8,28.2c-1.3,4.2-2.4,8.5-3.6,12.7c-2.2,0-3.1-0.3-4.2-2c-1.6-4.2-3-8.3-4.5-12.5
	c-2.8-8.5-5.6-16.9-8.5-25.4c-1.3-3.8-2.7-7.5-3.9-11.5c-0.3,0-0.5,0-0.6,0c0,9.6,0,19.3,0,28.9c0,4.4-0.5,9.3,0.6,13.2
	c0.6,2.4,1.9,3.9,3.9,5.3c0.9,0.6,4.1,2,3.1,3.6c-1.4,2.7-17.1,1.7-21,1.7c-0.9,0-0.6,0.2-0.6-0.6c-0.3,0-0.5,0-0.6,0
	c0-0.6,0-1.4,0-2c2.5-1.7,5.8-3,7.2-6c1.9-4.2,1.3-10,1.3-15.2c0-10.5,0-21.2,0-31.7c-0.3,0-0.5,0-0.6,0c0,0.9,0.5,2-0.6,2
	c0.3-1.7,0.5-3.3,0.6-4.9c-1.4-0.2-7.1-0.3-7.1-1.4c-0.3,0-0.5,0-0.6,0C800,12.9,800.2,11.5,800.5,10 M666.2,10
	c5.2,0,16.5-1.3,20.2,0.8c1.6,0.8,29.6,37.8,29.6,37.8c0.3,0,0.5,0,0.6,0c0-0.9-0.3-0.6,0.6-0.6c0-8,1.3-21-0.6-27.9
	c-1.3-4.9-8.6-6-8.6-9.3c0.3,0,0.5,0,0.6,0c0-0.3,0-0.5,0-0.6c7.1,0,14.1,0,21,0c0.9,0,0.6-0.3,0.6,0.6c0.3,0,0.5,0,0.6,0
	c-1.6,5-6.6,4.7-8,10.7c-1.6,6.3-0.5,14.9-0.5,21.6c0,10.4-0.6,20.2-0.6,30.3c-2.7-0.2-4.9-0.3-6.7-1.7c-3.3-2.7-34-43.5-34-44.7
	c-0.5,0-0.9,0-1.4,0c0,8.6,0,17.4,0,26c0,3.8-0.5,8,0.9,11.1c1.4,3,3.8,4.1,6.4,5.5c0.9,0.5,3.5,3.8,1.7,3.8c0,0.3,0,0.5,0,0.6
	c-7.1-1.1-14.9-0.6-22.4-0.6c-0.9,0-0.6,0.2-0.6-0.6c-0.3,0-0.5,0-0.6,0c0-0.9,0-1.9,0-2.8c2.8-0.9,5.8-2.4,7.2-5.2
	c2.8-5.8,1.7-19.6,2-27.1c0.2-5.2,1.6-11.6,0-16.8c-1.3-4.2-9.3-7.1-9.3-7.8c-0.5-0.6-1.3-1.4,0-1.4C665.7,11,665.9,10.5,666.2,10
	 M261.2,10c9.6,0,19.3,0,28.9,0c-0.2,1.3,0.2,4.2-1.4,4.2c-2,0.3-4.2,0.5-6.3,0.6c0,17.9,0,35.6,0,53.5c1.4,0,7.1-0.6,7.1,0.6
	c0.3,0,0.5,0,0.6,0c0,1.4,0,2.8,0,4.2c-9.6,0-19.1,0-28.9,0c0-1.3-0.5-4.2,0.6-4.2c0-0.3,0-0.5,0-0.6c1.4-0.2,4.5,0,5.3-1.4
	c2.2-3.8,0.9-11.5,0.9-16.3c0-11.9,0-24,0-35.9c-2.4,0-4.7,0-7.1,0C261.2,13.3,261.2,11.8,261.2,10 M198.7,10c10.5,0,21,0,31.7,0
	c0,1.1,0.5,4.2-0.6,4.2c0,0.3,0,0.5,0,0.6c-2.8,0-5.6,0-8.5,0c0,7.4-1.3,49.6,1.1,52.4c1.7,2,6.7,1.9,9.4,1.9
	c3.1-1.6,6.1-1.4,8.8-3.9c4.7-4.2,6.4-15.2,12.2-15.2c-0.3,7.5-0.6,14.6-0.6,21.8c0,0.9,0.2,0.6-0.6,0.6c0,0.3,0,0.5,0,0.6
	c-16.5,0-32.6-0.6-48.5-0.6c-1.3,0-4.9,0.5-4.9-0.6c-0.3,0-0.5,0-0.6,0c0-0.9-0.5-2,0.6-2c2.2-2,6.1-0.9,7.8-3.9
	c2-3.8,2.4-43.1,0.8-48c-1.4-4.2-8.5-2.7-8.5-7.4C198.3,10.5,198.4,10.4,198.7,10 M136.8,10c10.5,0,21,0,31.7,0
	c0,1.1,0.5,4.2-0.6,4.2c0,0.3,0,0.5,0,0.6c-2.8,0-5.6,0-8.5,0c0,16.5,0,32.9,0.2,49.3c0,1.3-0.3,4.2,1.3,4.2c2.4,0.8,5,0.6,7.7,0.6
	c16.2-0.3,14.7-19,22.6-19c-0.3,7.5-0.6,14.6-0.6,21.8c0,0.9,0.2,0.6-0.6,0.6c0,0.3,0,0.5,0,0.6c-12.4,0-24.8,0-37.3,0
	c-4.7,0-10.5,0.8-14.6-0.6c-0.6-0.2-3.5-2.2-1.6-2.2c0-0.5,0-0.9,0-1.4c1.4-0.5,7.7-0.5,7.7-2c3-7.1,1.4-25.4,1.4-34.5
	c0-4.5,0.8-10.5-0.6-14.4c-1.6-4.2-8.6-2.5-8.6-7.4C136.3,10.5,136.6,10.4,136.8,10 M99.6,10c9.6,0,19.3,0,28.9,0
	c-0.2,1.3,0.2,4.2-1.4,4.2c-2,0.3-4.2,0.5-6.3,0.6c0,17.9,0,35.6,0,53.5c1.4,0,7.1-0.6,7.1,0.6c0.3,0,0.5,0,0.6,0c0,1.4,0,2.8,0,4.2
	c-9.6,0-19.1,0-28.9,0c0-1.3-0.5-4.2,0.6-4.2c0-0.3,0-0.5,0-0.6c1.4-0.2,4.5,0,5.3-1.4c1.7-3.1,0.9-8.8,0.9-12.7
	c0-13.2,0-26.2,0-39.4c-2.4,0-4.7,0-7.1,0C99.6,13.3,99.6,11.8,99.6,10 M6.7,10c8.5,0,16.9,0,25.3,0c0,1.1,0.5,3.5-0.6,3.5
	c0,0.3,0,0.5,0,0.6c-1.3,0-4.2-0.5-4.2,0.6c-0.3,0-0.5,0-0.6,0c0.6,9.4,5,18.8,8,27.3c1.1,3.3,2.2,6.6,3.3,10c0.3,0,0.5,0,0.6,0
	c0-0.3,0-0.5,0-0.6c2.5-4.7,7.1-17.9,7.4-23.2c0.2-3.1-1.1-7.1-2.2-9.6c-0.9-2-6-5.2-6-6.7c0-0.3,0.2-0.5,0.2-0.8
	C38.3,9.4,56.6,10,60.2,10c0.9,0,0.6-0.3,0.6,0.6c0.3,0,0.5,0,0.6,0c0,0.9,0,1.9,0,2.8c-1.7,0.3-3.9,0.6-4.7,2.5
	c-1.6,4.4,6.4,24.2,8.3,29.2c0.6,1.9,1.3,3.8,2,5.6c0.9,0,0.6-0.3,0.6,0.6c0.3,0,0.5,0,0.6,0c0-0.3,0-0.5,0-0.6
	c2-4.7,9.9-27.9,7.5-33.1c-0.9-2.4-2.7-3.3-4.7-4.4c-0.6-0.3-3.9-2.7-2.2-2.7c0-0.3,0-0.5,0-0.6c7.2,0,14.6,0,21.8,0
	c-1.3,4.5-6.1,5.8-8,10c-2,4.2-3,8.8-4.4,13.3c-2.5,8.6-5,17.3-7.7,25.9c-1.6,4.7-3,9.4-4.5,14.3c-1.7-0.3-3.9-0.5-5.2-1.7
	C59,69.5,49.3,40.5,49.3,37c-0.5,0-0.9,0-1.4,0c-2.2,6.9-4.4,13.6-6.7,20.5c-1.4,4.5-2.2,11-5.2,14.9c-0.8,1.1-2.5,1.3-3.8,0.8
	c-2.7-0.9-3.5-6.3-4.2-8.6c-3.6-11.1-7.2-22.1-10.8-33.3c-1.4-4.4-2.4-9.7-4.9-13.6c-0.9-1.9-3.5-3.5-5.5-3.5
	C6.7,12.9,6.7,11.5,6.7,10 M908.7,9.4c2.2,0.2,4.1,0.2,5.6,1.4c2.7,2.2,3.3,6.6,4.5,9.6c4.1,9.9,8.2,19.9,12.1,29.8
	c1.9,5,3.6,11.5,7.1,15.7c1.3,1.6,4.4,3.3,6.4,3.3c-0.2,1.3,0,3.5-1.4,3.5c-6.7,2-18.4,0.6-26,0.6c-0.9,0-0.6,0.2-0.6-0.6
	c-0.3,0-0.5,0-0.6,0c0.2-1.3,0-3.5,1.4-3.5c0.9-0.5,2-0.9,3-1.4c1.7-3.1-0.2-11.1-3.3-12.5c-2.7-1.3-17.6-1.4-19.8,0.3
	c-1.3,1.1-2,3-2.4,4.5c-2.4,8.2,7.1,9.3,7.1,9.9c0.3,0,0.5,0,0.6,0c0,0.9,0.5,2.8-0.6,2.8c0,0.3,0,0.5,0,0.6c-7.2,0-14.6,0-21.8,0
	c-0.9,0-1.4,0.5-1.4-0.6c-0.3,0-0.5,0-0.6,0c0-0.9,0-1.9,0-2.8c2.2-1.3,4.4-2.2,6.3-4.2c3-3.5,4.1-7.8,6-11.8
	c3.8-9.9,7.7-19.8,11.6-29.8C903.4,18.8,904.9,13.6,908.7,9.4 M391.4,9.4c1.3,0.5,3.1,1.1,3.9,2.4c1.7,2.8,2.4,6.4,3.3,9.6
	c1.7,5.3,3.5,10.8,5,16.2c1.1,2.8,2.2,5.6,3.1,8.6c0.3,0,0.5,0,0.6,0c1.1-4.9,9.3-33.7,12.4-35.1c4.7-2.2,16.8-0.8,22.7-0.8
	c0,1.1,0.5,4.2-0.6,4.2c0,0.3,0,0.5,0,0.6c-2.4,0.2-5.3,0.2-6.3,2.5c-1.6,3.6-0.2,8.9-0.2,13c0,8,0,16,0,24c0,3.8-0.6,8.5,0.6,11.8
	c1.1,2.8,7.1,1.7,7.1,3.1c0.3,0,0.5,0,0.6,0c-0.2,1.3,0,3.5-1.4,3.5c-7.7,2-18.4,0.6-26.7,0.6c-0.9,0-0.6,0.2-0.6-0.6
	c-0.3,0-0.5,0-0.6,0c0-1.1,0-2.4,0-3.5c0.3,0,0.5,0,0.6,0c0-0.3,0-0.5,0-0.6c2,0,4.2,0,6.3,0c1.4-15.2,0.6-32,0.6-47.8
	c-0.5,0-0.9,0-1.4,0c-5,16.2-9.9,32.3-14.9,48.5c-0.5,1.3-1.1,2.5-2.7,2.5c-1.4,0-1.9-0.9-2.5-1.9c-5.6-11.6-8.3-24.8-12.5-37
	c-1.3-4.1-2.7-8-3.9-12.1c-0.5,0-0.9,0-1.4,0c0,10.8,0.2,22.3,0.6,32.3c0.2,3.5,0.3,6.9,0.5,10.4c1.1,4.7,8,5.3,8,10
	c-7.7,0-15.5,0-23.2,0c0-0.9,0-1.9,0-2.8c2.7-0.9,5.8-2.5,6.9-5.3c1.6-3.9,0.8-9.9,0.8-14.4c0-12.2-0.6-24.2-0.6-35.9
	c-2.8-0.3-5.2-1.4-7.7-1.4c0-0.6,0-1.4,0-2C374.6,8.5,384.3,11.5,391.4,9.4 M327.4,9.4c2,0.2,4.1,0.2,5.6,1.4
	c2.7,2.4,3.5,6.7,4.7,9.9c3.1,7.7,16,44.2,21.3,47.1c1.9,0.9,3.6,1.6,3.6,4.2c0,0.9,0,0.8-0.8,0.8c-7.5,2-17.7,0.6-26,0.6
	c-0.9,0-0.6,0.2-0.6-0.6c-0.3,0-0.5,0-0.6,0c0.2-1.3,0-3.5,1.4-3.5c0.9-0.5,2-0.9,3-1.4c1.7-3.1-0.2-11.1-3.3-12.5
	c-2.7-1.3-17.6-1.4-19.8,0.3c-1.6,1.3-2,3.3-2.5,5.2c-2,7.5,7.2,8.6,7.2,9.4c0.3,0,0.5,0,0.6,0c0,0.9,0.5,2.8-0.6,2.8
	c0,0.3,0,0.5,0,0.6c-7.2,0-14.6,0-21.8,0c-0.9,0-1.4,0.5-1.4-0.6c-0.3,0-0.5,0-0.6,0c0-0.9,0-1.9,0-2.8c2.2-1.3,4.1-2,6-3.9
	c3.1-3.3,4.2-7.7,6-11.6c3.9-9.9,7.7-19.8,11.6-29.6C322,19.3,323.5,13.8,327.4,9.4 M761.7,8.6c5.6,0,11.5,0.8,16,3.1
	c20.4,10.7,24.2,42.5,5,56.6c-4.2,3-8.6,5.5-14.1,6.1c-29.3,3.3-43.5-31.1-28.4-52.9C745.7,13.8,753.4,11.3,761.7,8.6 M625.4,8.6
	c6.3,0,12.9,0.9,17.6,4.1c18.7,12.1,22.7,41.9,3.5,55.7c-4.2,3-8.6,5.5-14.1,6.1c-29,3.3-44.4-31.8-28.1-53.2
	C610,13.6,616.9,11.5,625.4,8.6 M562.8,8.6c3.8,0,7.5,0,10.7,1.3c2.5,0.9,5.6,3.6,8.3,3.6c0.6-0.8,6.3-6.4,6.3-3.5
	c0.3,0,0.5,0,0.6,0c0,7.1,0,14.1,0,21.2c0,0.9,0.2,0.6-0.6,0.6c0,0.3,0,0.5,0,0.6c-0.6-0.2-1.3-0.3-2-0.5c-0.9-0.3-1.6-0.8-2-1.7
	c-1.1-2.2-2.2-4.4-3.3-6.7c-3.9-6.6-11.8-13.5-20.1-9.6c-3,1.4-5.5,3.8-6,7.2c-1.6,12.1,20.2,12.5,27.5,16.5c4.1,2.2,7.1,6.4,8,11
	c0.9,4.1,0.5,8.9-0.8,12.7c-3.1,8.9-13.6,15.4-23.7,13c-4.9-1.1-10.8-6.6-15.1-3.3c-0.9,0.6-5.5,3.5-5.5,1.6c-0.3,0-0.5,0-0.6,0
	c0-7.2,0-14.6,0-21.8c0-0.9-0.3-1.4,0.6-1.4c0-0.3,0-0.5,0-0.6c5.3,0.9,5.6,5.6,8.2,9.6c4.1,6.4,11.6,13.5,19.9,11.3
	c3.9-0.9,6.4-3.8,7.7-7.5c0.8-2.4,0-5-0.9-6.9c-1.4-2.5-4.2-3.9-6.7-5c-7.7-3.1-16.5-2.8-22.7-9.1c-10.5-10.5-3.6-31.8,12.2-31.8
	C562.8,9.1,562.8,8.9,562.8,8.6 M474.2,8.6c3.8,0,7.2,0.2,10.4,1.3c2.7,0.9,5.6,3.8,8.6,3.8c0.6-0.8,6.3-6.4,6.3-3.5
	c0.3,0,0.5,0,0.6,0c0,7.1,0,14.1,0,21.2c0,0.9,0.2,0.6-0.6,0.6c0,0.3,0,0.5,0,0.6c-0.6-0.2-1.3-0.3-2-0.5c-0.9-0.3-1.6-0.8-2-1.7
	c-1.1-2.2-2.2-4.4-3.3-6.7c-3.9-6.6-11.8-13.5-20.1-9.6c-3,1.4-5.5,3.8-6,7.2c-1.7,12.5,20.5,12.2,27.8,16.6c3.3,2,5.8,5.2,7.2,8.8
	c1.4,4.1,1.3,9.4,0,13.6c-3.3,10.8-14.9,16.3-26.2,13.3c-3.9-1.1-8.5-6-12.4-3c-0.8,0.6-6,3.9-6,1.9c-0.3,0-0.5,0-0.6,0
	c0-7.2,0-14.6,0-21.8c0-0.9-0.5-1.4,0.6-1.4c0-0.3,0-0.5,0-0.6c5,0.8,5.6,5.2,7.8,9.1c3.8,6.7,11.6,13.8,20.2,11.8
	c3.6-0.9,6.3-3.5,7.5-6.9c0.8-2.2,0.6-4.5-0.3-6.7c-1.3-2.7-3.8-4.2-6.3-5.5c-7.8-3.6-16.5-3.3-23.2-9.1
	c-11.8-10-3.6-32.2,11.8-32.2C474.2,9.1,474.2,8.9,474.2,8.6"/>
</svg>
