<?xml version="1.0" encoding="utf-8"?>
<!-- Generator: Adobe Illustrator 17.1.0, SVG Export Plug-In . SVG Version: 6.00 Build 0)  -->
<!DOCTYPE svg PUBLIC "-//W3C//DTD SVG 1.1//EN" "http://www.w3.org/Graphics/SVG/1.1/DTD/svg11.dtd">
<svg version="1.1" id="Layer_1" xmlns="http://www.w3.org/2000/svg" xmlns:xlink="http://www.w3.org/1999/xlink" x="0px" y="0px"
	 viewBox="0 0 39.5 48.7" enable-background="new 0 0 39.5 48.7" xml:space="preserve">
<g>
	<g>
		<g>
			<g>
				<g>
					<path d="M18.4,35.5c-0.1,0.9-0.2,1.5-0.4,2.2c-0.7,0-2.5,0.1-2.7,0.1c-0.3,0-1.4,0.1-2,0.1c-0.2,0-0.7,0.1-0.9,0.1
						c-1.2,0.1-2,0.1-2.5,0.1c-1.2,0.1-2.1,0.3-3.5,0.3c-0.3,0-0.2,0.1-0.2-0.8c0-1.5-0.5-2.1-1.1-2.8c0.2-0.5,0.6-0.8,0.7-1.2
						c0.1,0,0.2,0.2,0.4,0.4c0.5,0.6,0.9,0.8,0.9,1.7c0,0.4,0.4,0.2,0.5,0.2c1.1,0,1.8-0.1,2.3-0.1c0.2,0,2.4-0.1,2.7-0.1
						c0.3,0,1.4,0,1.8,0C15.4,35.6,16.9,35.6,18.4,35.5"/>
					<path d="M17.8,39.7c-0.1,0.7-0.1,1.6-0.2,2.1c-0.6,0.2-3.2,0.1-6.7,0.5c-0.9,0.1-3.2,0.4-4.1,0.6C6.4,42.9,5.5,43,5.1,43
						c-0.4,0-0.9,0.1-1.3-0.2c0.3-1,1-1.6,1.3-2.5c0.5,0.4,0.9,0.2,1.5,0.2c0.7,0,4-0.3,5.1-0.4c0.5,0,3.5-0.3,4.4-0.4
						C16.6,39.7,17,39.7,17.8,39.7"/>
					<path d="M17.7,43.9c0.2,0.3,0.2,1.7,0.2,2.2c-2.5,0.1-5.6,0.3-8.5,0.7c-0.6,0.1-4.6,0.6-5.8,0.9c-0.1,0-1.5,0.4-2,0
						c-0.2-0.2,0-0.5,0.1-0.7c0.1-0.1,0.7-1.1,1-2.2c0.1,0,0,0.4,0,0.7c0.1,0.1,0.2,0.1,0.4,0.1c1.1,0,2.2-0.4,3.3-0.6
						c0.2,0,4.8-0.6,5.6-0.7C14.4,44.1,16.9,43.9,17.7,43.9"/>
					<path d="M12,22.7c1,0.9-0.4,3-0.7,3.9c0.1-0.8,0.1-1.1,0-1.2c0-0.2-0.2-0.5-0.2-1.1C11.4,23.9,11.8,23.1,12,22.7"/>
					<path d="M10.1,29.3c-0.2-0.1,0-0.8-0.1-1.4c-0.1-0.3-0.1-0.4-0.3-0.7c0.2-0.4,0.6-1,0.8-1.4c0.1,0.2,0.1,0.4,0.1,0.7
						C10.5,27.3,10.2,28.6,10.1,29.3"/>
					<path d="M8.1,32.9c0,0.3,0,0.7,0,0.8c0,0.1-0.4,0.7-0.5,1c-0.3-0.6-0.3-1.3-0.5-1.6c-0.3-0.4-0.4-0.4-0.7-0.6
						c0.4-0.7,0.5-0.8,0.7-1.3c0.1,0,0.5,0.5,0.7,0.8C7.9,32.2,8.1,32.7,8.1,32.9"/>
					<path d="M21.1,9.4C21.1,9.3,21,9.1,21,9c1.3-2.5,3.8-7.3,3.8-7.3c0-0.3-0.4-0.1-0.7,0.5c-0.2,0.3-2.1,3.9-3.5,6.4
						c0-0.2,0-0.3,0-0.3c1.1-2.4,3-6.5,3-6.5c0-0.7-0.4-0.1-0.4-0.1l-2.7,5.7l-0.2,0.3c-1.1-2.3-2.6-5.8-2.6-5.9
						c-0.1-0.4-0.3-0.7-0.5-0.4L17,1.1c-0.3-0.3-0.5,0-0.3,0.5c0.8,2,1.8,3.6,2.8,6.6L19.1,10c0,0,0,0,0,0c-0.3,0.4-0.2,0.4-0.4,0.6
						c0,0-0.5,0.8-0.5,1.1c0.4,0.2,2,0.2,2.7,0.1c0.3-0.1,0.9-0.3,0.9-0.8c-0.2-0.2-0.3-0.7-0.4-0.8C21.4,9.9,21.3,9.6,21.1,9.4"/>
					<path d="M27.1,22.5c0-0.2,0-0.4,0.1-0.7c0.1-0.1,0.2-0.2,0.2-0.3c-0.3-0.5-0.5-1-0.8-1.4c-0.8,0.4-0.3,1.2-0.1,1.4
						c0.1,0.1,0.4,0.5,0.3,0.9c0,0.2,0,0.2-0.1,0.3c-0.2,0.1-0.6,0.2-0.8,0.2c-1.5,0-5.2-0.1-6.9-0.1c-1.6-0.1-3.4,0.1-4.7,0
						c-0.2,0-0.4,0-0.7-0.1c-0.1-0.1,0.1-0.3,0.1-0.4c0.3-0.3,0.5-0.7,0.7-1.2c0-0.1-0.3-0.3-0.5-0.6c-0.1-0.1-0.1-0.3-0.2-0.5
						c-0.4,0.6-0.7,1.3-0.9,1.6c0.1,0.1,0.1,0.1,0.3,0.4c0.1,0.3,0.2,0.5,0.2,0.7c-0.3,0.6-0.5,1.1-0.9,1.9c0.1,0.2,0.2,0.3,0.4,0.3
						c0.7,0.2,2.3,0,2.8,0c0.9,0,7.1,0,7.8,0c1.3,0,3.5,0.2,4.1,0c0.2-0.1,0.2-0.4,0.3-0.6C27.5,23.5,27.2,23.1,27.1,22.5"/>
					<path d="M25.9,20.3c-0.5-1.4,0.2-0.7-0.1-1.9c-0.2-0.2-0.8-1.3-1-1.8c-0.5,0.2,0.1,0.8,0.1,1.2c0,0.3-0.3,0.4-0.5,0.5
						c-1.1,0.1-1.8,0-2.7,0c-1.4,0-2.7,0-2.9,0H16c-0.4,0-0.6-0.1-0.7-0.4c0-0.4,0.1-0.5,0-0.8c-0.1,0.4-0.5,1-0.7,1.3
						c0,0.3,0.2,0.3,0.3,0.6c0.1,0.4,0.2,0.5,0,1.4h1.9c0.2,0,7.5,0.1,8.5,0.1C25.3,20.5,26,20.6,25.9,20.3"/>
					<path d="M23,13.7c-1,0.3-5,0.6-5.6,0c-0.4,0.7-0.7,1.3-1.1,2.1c0.4,0.3,3.3,0.3,3.9,0.3c0.6,0,1.6,0,2.2,0
						c0.5,0,1.2-0.2,1.6-0.5C23.6,15,23.3,14.4,23,13.7"/>
					<path d="M22,35.5c0.1,1,0.2,1.5,0.4,2.2c2.1,0,9.8,0.4,11.6,0.7c0.2,0,0.2,0,0.2-0.8c0-1.3,0.3-2.2,1.1-2.8
						c-0.3-0.5-0.5-0.8-0.7-1.2c-0.1,0-1.6,1.6-1.3,2.1c0.2,0.3-0.4,0.2-0.5,0.2C30.4,35.8,23.4,35.6,22,35.5"/>
					<path d="M22.6,39.7c0.2,1.3,0.2,1.8,0.2,2.3c1.3,0,4.7,0.1,8.3,0.5c0.7,0.1,2.1,0.3,4.2,0.6c0.4,0,0.9,0.1,1.3-0.2
						c-0.2-1-0.7-1.5-1-2.4c-0.5,0.4-1.2,0.2-1.8,0.2C33,40.5,26.5,39.8,22.6,39.7"/>
					<path d="M22.8,43.8c0,0.6-0.1,1.3-0.1,2.2c2.5,0.1,8.1,0.8,8.2,0.8c0.6,0.1,4.6,0.6,5.8,0.9c0.1,0,1.5,0.3,2-0.1
						c0-0.3,0-0.5-0.1-0.7c-0.2-0.5-0.3-0.7-0.3-0.9c0,0-0.3-0.5-0.5-0.9c-0.1,0.1-0.2,0.2-0.2,0.4c-0.4,0-2.7-0.3-3.7-0.5
						c-0.2,0-2.2-0.4-3-0.5C28.6,44.2,25.1,44,22.8,43.8"/>
					<path d="M28.2,22.8c-0.6,0.9,0.4,2.5,0.7,3.4c0.2,0,0-0.6,0-0.9c0-0.4,0-0.7,0.1-1C28.6,23.7,28.3,23.4,28.2,22.8"/>
					<path d="M29.3,27C29.3,27,29.3,27,29.3,27C29.3,27,29.3,27,29.3,27"/>
					<path d="M32.3,33.7c0,0.1,0.4,0.9,0.5,1c0.2-0.5,0.3-1.3,0.5-1.6c0.2-0.5,0.4-0.4,0.6-0.6c-0.2-0.4-0.4-0.9-0.6-1.3
						c-0.1,0-0.5,0.5-0.7,0.8C32.2,32.6,32.3,33.7,32.3,33.7"/>
					<path d="M31.6,32.2c0.2-1,0.4-1.8,0.9-2.3c-0.2-0.5-0.6-1-0.8-1.4c-0.1,0.1-0.7,1.1-0.8,2c-0.1,0.3,0.3,0.8-0.1,0.8
						c0,0,0,0,0,0c-2.9-0.2-7.8-0.2-9.2-0.1c0.1,0.9,0.2,1,0.3,2.2c2.8-0.1,7.8,0.3,8.5,0.3c0.8,0,1.5,0,1.6-0.4
						C31.6,32.4,31.5,32.4,31.6,32.2"/>
					<path d="M30.4,27c-0.3-0.4-0.3-0.6-0.7-1.3c-0.1,0.2-0.3,0.4-0.3,0.7c-0.1,0.5,0,1-0.6,1c-1.7-0.2-5.4-0.1-6.1-0.2
						c-0.1,0-0.9,0-1.7,0c0.1,0.7,0.1,1.3,0.2,1.7c0,0.1,0,0.2,0.1,0.4c0.5,0,1,0,1.7,0c1.3,0,3.4,0,5,0c0.7,0,1.3,0.2,1.7,0.2
						c0.2,0,0.6,0.1,0.5-0.4c-0.3-0.7,0-1.1,0-1.2C30.4,27.3,30.4,27.2,30.4,27 M29.3,27C29.3,27,29.3,27,29.3,27
						C29.3,27,29.3,27,29.3,27"/>
					<path d="M9.7,31.3c-0.4,0-0.4-0.2-0.4-0.5c0.1-0.9-0.2-1.2-0.4-1.9c0-0.1-0.1-0.3-0.2-0.4c-0.2,0.5-0.6,0.9-0.8,1.4
						c0.5,0.5,0.7,1.3,0.9,2.3c0,0.2-0.3,0.5-0.5,1.3c0.4,0.5,0.6,0.1,1.3,0.1c0,0,0.4,0,0.4,0c3.3,0,5.8,0,8.7-0.1
						c0.2-0.9,0.2-1.6,0.4-2.3C17.2,31.5,10.3,31.3,9.7,31.3 M9.7,31.6L9.7,31.6c0-0.1,0-0.2-0.1-0.3C9.6,31.4,9.6,31.5,9.7,31.6"/>
					<path d="M19.7,28.4c0.1-0.5,0.1-0.9,0.2-1.3c-1.9-0.1-5.4-0.2-8-0.1c-0.4,0.1-0.3-0.3-0.4-0.4c0,0,0,0,0,0
						c-0.2,0.4-1,2.1-1,2.4c0.5,0.4,1.3,0.2,2,0.2c1.9,0,4,0,5.7,0c0.2,0,0.8,0,1.5,0C19.6,28.9,19.6,28.7,19.7,28.4"/>
				</g>
			</g>
		</g>
	</g>
</g>
</svg>
