<?xml version="1.0" encoding="utf-8"?>
<!-- Generator: Adobe Illustrator 18.0.0, SVG Export Plug-In . SVG Version: 6.00 Build 0)  -->
<!DOCTYPE svg PUBLIC "-//W3C//DTD SVG 1.1//EN" "http://www.w3.org/Graphics/SVG/1.1/DTD/svg11.dtd">
<svg version="1.1" id="Layer_1" xmlns="http://www.w3.org/2000/svg" xmlns:xlink="http://www.w3.org/1999/xlink" x="0px" y="0px"
	 viewBox="0 0 960 560" enable-background="new 0 0 960 560" xml:space="preserve">
<g>
	<g>
		<g>
			<g>
				<g>
					<path fill="#AB882E" d="M464.5,408.2c-1.1,10.3-2.3,17.2-4.6,25.3c-8,0-28.7,1.1-31,1.1c-3.4,0-16.1,1.1-23,1.1
						c-2.3,0-8,1.1-10.3,1.1c-13.8,1.1-23,1.1-28.7,1.1c-13.8,1.1-24.1,3.4-40.2,3.4c-3.4,0-2.3,1.1-2.3-9.2
						c0-17.2-5.7-24.1-12.6-32.2c2.3-5.7,6.9-9.2,8-13.8c1.1,0,2.3,2.3,4.6,4.6c5.7,6.9,10.3,9.2,10.3,19.5c0,4.6,4.6,2.3,5.7,2.3
						c12.6,0,20.7-1.1,26.4-1.1c2.3,0,27.6-1.1,31-1.1s16.1,0,20.7,0C430,409.4,447.2,409.4,464.5,408.2"/>
					<path fill="#AB882E" d="M457.6,456.5c-1.1,8-1.1,18.4-2.3,24.1c-6.9,2.3-36.8,1.1-77,5.7c-10.3,1.1-36.8,4.6-47.1,6.9
						c-4.6,0-14.9,1.1-19.5,1.1s-10.3,1.1-14.9-2.3c3.4-11.5,11.5-18.4,14.9-28.7c5.7,4.6,10.3,2.3,17.2,2.3c8,0,46-3.4,58.6-4.6
						c5.7,0,40.2-3.4,50.6-4.6C443.8,456.5,448.4,456.5,457.6,456.5"/>
					<path fill="#AB882E" d="M456.4,504.8c2.3,3.4,2.3,19.5,2.3,25.3c-28.7,1.1-64.4,3.4-97.7,8c-6.9,1.1-52.9,6.9-66.7,10.3
						c-1.1,0-17.2,4.6-23,0c-2.3-2.3,0-5.7,1.1-8c1.1-1.1,8-12.6,11.5-25.3c1.1,0,0,4.6,0,8c1.1,1.1,2.3,1.1,4.6,1.1
						c12.6,0,25.3-4.6,37.9-6.9c2.3,0,55.2-6.9,64.4-8C418.5,507.1,447.2,504.8,456.4,504.8"/>
					<path fill="#AB882E" d="M390.9,261c11.5,10.3-4.6,34.5-8,44.8c1.1-9.2,1.1-12.6,0-13.8c0-2.3-2.3-5.7-2.3-12.6
						C384,274.8,388.6,265.6,390.9,261"/>
					<path fill="#AB882E" d="M369,336.9c-2.3-1.1,0-9.2-1.1-16.1c-1.1-3.4-1.1-4.6-3.4-8c2.3-4.6,6.9-11.5,9.2-16.1
						c1.1,2.3,1.1,4.6,1.1,8C373.6,313.9,370.2,328.9,369,336.9"/>
					<path fill="#AB882E" d="M346,378.3c0,3.4,0,8,0,9.2c0,1.1-4.6,8-5.7,11.5c-3.4-6.9-3.4-14.9-5.7-18.4c-3.4-4.6-4.6-4.6-8-6.9
						c4.6-8,5.7-9.2,8-14.9c1.1,0,5.7,5.7,8,9.2C343.7,370.3,346,376,346,378.3"/>
					<path fill="#AB882E" d="M495.5,108.1c0-1.1-1.1-3.4-1.1-4.6c14.9-28.7,43.7-83.9,43.7-83.9c0-3.4-4.6-1.1-8,5.7
						c-2.3,3.4-24.1,44.8-40.2,73.6c0-2.3,0-3.4,0-3.4c12.6-27.6,34.5-74.7,34.5-74.7c0-8-4.6-1.1-4.6-1.1l-31,65.5l-2.3,3.4
						c-12.6-26.4-29.9-66.7-29.9-67.8c-1.1-4.6-3.4-8-5.7-4.6l-2.3-3.4c-3.4-3.4-5.7,0-3.4,5.7c9.2,23,20.7,41.4,32.2,75.9
						l-4.6,20.7l0,0c-3.4,4.6-2.3,4.6-4.6,6.9c0,0-5.7,9.2-5.7,12.6c4.6,2.3,23,2.3,31,1.1c3.4-1.1,10.3-3.4,10.3-9.2
						c-2.3-2.3-3.4-8-4.6-9.2C499,113.8,497.8,110.4,495.5,108.1"/>
					<path fill="#AB882E" d="M564.5,258.7c0-2.3,0-4.6,1.1-8c1.1-1.1,2.3-2.3,2.3-3.4c-3.4-5.7-5.7-11.5-9.2-16.1
						c-9.2,4.6-3.4,13.8-1.1,16.1c1.1,1.1,4.6,5.7,3.4,10.3c0,2.3,0,2.3-1.1,3.4c-2.3,1.1-6.9,2.3-9.2,2.3
						c-17.2,0-59.8-1.1-79.3-1.1c-18.4-1.1-39.1,1.1-54,0c-2.3,0-4.6,0-8-1.1c-1.1-1.1,1.1-3.4,1.1-4.6c3.4-3.4,5.7-8,8-13.8
						c0-1.1-3.4-3.4-5.7-6.9c-1.1-1.1-1.1-3.4-2.3-5.7c-4.6,6.9-8,14.9-10.3,18.4c1.1,1.1,1.1,1.1,3.4,4.6c1.1,3.4,2.3,5.7,2.3,8
						c-3.4,6.9-5.7,12.6-10.3,21.8c1.1,2.3,2.3,3.4,4.6,3.4c8,2.3,26.4,0,32.2,0c10.3,0,81.6,0,89.7,0c14.9,0,40.2,2.3,47.1,0
						c2.3-1.1,2.3-4.6,3.4-6.9C569.1,270.2,565.7,265.6,564.5,258.7"/>
					<path fill="#AB882E" d="M550.7,233.4c-5.7-16.1,2.3-8-1.1-21.8c-2.3-2.3-9.2-14.9-11.5-20.7c-5.7,2.3,1.1,9.2,1.1,13.8
						c0,3.4-3.4,4.6-5.7,5.7c-12.6,1.1-20.7,0-31,0c-16.1,0-31,0-33.3,0h-32.2c-4.6,0-6.9-1.1-8-4.6c0-4.6,1.1-5.7,0-9.2
						c-1.1,4.6-5.7,11.5-8,14.9c0,3.4,2.3,3.4,3.4,6.9c1.1,4.6,2.3,5.7,0,16.1h21.8c2.3,0,86.2,1.1,97.7,1.1
						C543.8,235.7,551.9,236.9,550.7,233.4"/>
					<path fill="#AB882E" d="M517.4,157.5c-11.5,3.4-57.5,6.9-64.4,0c-4.6,8-8,14.9-12.6,24.1c4.6,3.4,37.9,3.4,44.8,3.4
						c6.9,0,18.4,0,25.3,0c5.7,0,13.8-2.3,18.4-5.7C524.3,172.5,520.8,165.6,517.4,157.5"/>
					<path fill="#AB882E" d="M505.9,408.2c1.1,11.5,2.3,17.2,4.6,25.3c24.1,0,112.7,4.6,133.4,8c2.3,0,2.3,0,2.3-9.2
						c0-14.9,3.4-25.3,12.6-32.2c-3.4-5.7-5.7-9.2-8-13.8c-1.1,0-18.4,18.4-14.9,24.1c2.3,3.4-4.6,2.3-5.7,2.3
						C602.5,411.7,522,409.4,505.9,408.2"/>
					<path fill="#AB882E" d="M512.8,456.5c2.3,14.9,2.3,20.7,2.3,26.4c14.9,0,54,1.1,95.4,5.7c8,1.1,24.1,3.4,48.3,6.9
						c4.6,0,10.3,1.1,14.9-2.3c-2.3-11.5-8-17.2-11.5-27.6c-5.7,4.6-13.8,2.3-20.7,2.3C632.4,465.7,557.6,457.7,512.8,456.5"/>
					<path fill="#AB882E" d="M515.1,503.7c0,6.9-1.1,14.9-1.1,25.3c28.7,1.1,93.1,9.2,94.3,9.2c6.9,1.1,52.9,6.9,66.7,10.3
						c1.1,0,17.2,3.4,23-1.1c0-3.4,0-5.7-1.1-8c-2.3-5.7-3.4-8-3.4-10.3c0,0-3.4-5.7-5.7-10.3c-1.1,1.1-2.3,2.3-2.3,4.6
						c-4.6,0-31-3.4-42.5-5.7c-2.3,0-25.3-4.6-34.5-5.7C581.8,508.3,541.5,506,515.1,503.7"/>
					<path fill="#AB882E" d="M577.2,262.2c-6.9,10.3,4.6,28.7,8,39.1c2.3,0,0-6.9,0-10.3c0-4.6,0-8,1.1-11.5
						C581.8,272.5,578.3,269.1,577.2,262.2"/>
					<path fill="#AB882E" d="M589.8,310.5L589.8,310.5L589.8,310.5"/>
					<path fill="#AB882E" d="M624.3,387.5c0,1.1,4.6,10.3,5.7,11.5c2.3-5.7,3.4-14.9,5.7-18.4c2.3-5.7,4.6-4.6,6.9-6.9
						c-2.3-4.6-4.6-10.3-6.9-14.9c-1.1,0-5.7,5.7-8,9.2C623.2,374.9,624.3,387.5,624.3,387.5"/>
					<path fill="#AB882E" d="M616.3,370.3c2.3-11.5,4.6-20.7,10.3-26.4c-2.3-5.7-6.9-11.5-9.2-16.1c-1.1,1.1-8,12.6-9.2,23
						c-1.1,3.4,3.4,9.2-1.1,9.2l0,0c-33.3-2.3-89.7-2.3-105.8-1.1c1.1,10.3,2.3,11.5,3.4,25.3c32.2-1.1,89.7,3.4,97.7,3.4
						c9.2,0,17.2,0,18.4-4.6C616.3,372.6,615.1,372.6,616.3,370.3"/>
					<path fill="#AB882E" d="M602.5,310.5c-3.4-4.6-3.4-6.9-8-14.9c-1.1,2.3-3.4,4.6-3.4,8c-1.1,5.7,0,11.5-6.9,11.5
						c-19.5-2.3-62.1-1.1-70.1-2.3c-1.1,0-10.3,0-19.5,0c1.1,8,1.1,14.9,2.3,19.5c0,1.1,0,2.3,1.1,4.6c5.7,0,11.5,0,19.5,0
						c14.9,0,39.1,0,57.5,0c8,0,14.9,2.3,19.5,2.3c2.3,0,6.9,1.1,5.7-4.6c-3.4-8,0-12.6,0-13.8C602.5,313.9,602.5,312.8,602.5,310.5
						 M589.8,310.5L589.8,310.5L589.8,310.5"/>
					<path fill="#AB882E" d="M364.4,359.9c-4.6,0-4.6-2.3-4.6-5.7c1.1-10.3-2.3-13.8-4.6-21.8c0-1.1-1.1-3.4-2.3-4.6
						c-2.3,5.7-6.9,10.3-9.2,16.1c5.7,5.7,8,14.9,10.3,26.4c0,2.3-3.4,5.7-5.7,14.9c4.6,5.7,6.9,1.1,14.9,1.1h4.6
						c37.9,0,66.7,0,100-1.1c2.3-10.3,2.3-18.4,4.6-26.4C450.7,362.2,371.3,359.9,364.4,359.9 M364.4,363.4L364.4,363.4
						c0-1.1,0-2.3-1.1-3.4C363.3,361.1,363.3,362.2,364.4,363.4"/>
					<path fill="#AB882E" d="M479.4,326.6c1.1-5.7,1.1-10.3,2.3-14.9c-21.8-1.1-62.1-2.3-92-1.1c-4.6,1.1-3.4-3.4-4.6-4.6l0,0
						c-2.3,4.6-11.5,24.1-11.5,27.6c5.7,4.6,14.9,2.3,23,2.3c21.8,0,46,0,65.5,0c2.3,0,9.2,0,17.2,0
						C478.3,332.3,478.3,330,479.4,326.6"/>
				</g>
			</g>
		</g>
	</g>
</g>
</svg>
