<?xml version="1.0" encoding="utf-8"?>
<!-- Generator: Adobe Illustrator 18.0.0, SVG Export Plug-In . SVG Version: 6.00 Build 0)  -->
<!DOCTYPE svg PUBLIC "-//W3C//DTD SVG 1.1//EN" "http://www.w3.org/Graphics/SVG/1.1/DTD/svg11.dtd">
<svg version="1.1" id="Layer_1" xmlns="http://www.w3.org/2000/svg" xmlns:xlink="http://www.w3.org/1999/xlink" x="0px" y="0px"
	 viewBox="0 -200 452 685" enable-background="new 0 -200 452 685" xml:space="preserve">
<g>
	<g>
		<g>
			<g>
				<g>
					<path fill="#FFFFFF" d="M206.9,319.6c-1.1,10.3-2.3,17.2-4.6,25.3c-8,0-28.7,1.1-31,1.1c-3.4,0-16.1,1.1-23,1.1
						c-2.3,0-8,1.1-10.3,1.1c-13.8,1.1-23,1.1-28.7,1.1c-13.8,1.1-24.1,3.4-40.2,3.4c-3.4,0-2.3,1.1-2.3-9.2
						c0-17.2-5.7-24.1-12.6-32.2c2.3-5.7,6.9-9.2,8-13.8c1.1,0,2.3,2.3,4.6,4.6c5.7,6.9,10.3,9.2,10.3,19.5c0,4.6,4.6,2.3,5.7,2.3
						c12.6,0,20.7-1.1,26.4-1.1c2.3,0,27.6-1.1,31-1.1s16.1,0,20.7,0C172.4,320.7,189.7,320.7,206.9,319.6"/>
					<path fill="#FFFFFF" d="M200,367.9c-1.1,8-1.1,18.4-2.3,24.1c-6.9,2.3-36.8,1.1-77,5.7c-10.3,1.1-36.8,4.6-47.1,6.9
						c-4.6,0-14.9,1.1-19.5,1.1S43.6,407,39,403.5c3.4-11.5,11.5-18.4,14.9-28.7c5.7,4.6,10.3,2.3,17.2,2.3c8,0,46-3.4,58.6-4.6
						c5.7,0,40.2-3.4,50.6-4.6C186.2,367.9,190.8,367.9,200,367.9"/>
					<path fill="#FFFFFF" d="M198.9,416.2c2.3,3.4,2.3,19.5,2.3,25.3c-28.7,1.1-64.4,3.4-97.7,8c-6.9,1.1-52.9,6.9-66.7,10.3
						c-1.1,0-17.2,4.6-23,0c-2.3-2.3,0-5.7,1.1-8c1.1-1.1,8-12.6,11.5-25.3c1.1,0,0,4.6,0,8c1.1,1.1,2.3,1.1,4.6,1.1
						c12.6,0,25.3-4.6,37.9-6.9c2.3,0,55.2-6.9,64.4-8C160.9,418.5,189.7,416.2,198.9,416.2"/>
					<path fill="#FFFFFF" d="M133.3,172.4c11.5,10.3-4.6,34.5-8,44.8c1.1-9.2,1.1-12.6,0-13.8c0-2.3-2.3-5.7-2.3-12.6
						C126.4,186.2,131,177,133.3,172.4"/>
					<path fill="#FFFFFF" d="M111.5,248.3c-2.3-1.1,0-9.2-1.1-16.1c-1.1-3.4-1.1-4.6-3.4-8c2.3-4.6,6.9-11.5,9.2-16.1
						c1.1,2.3,1.1,4.6,1.1,8C116.1,225.3,112.6,240.3,111.5,248.3"/>
					<path fill="#FFFFFF" d="M88.5,289.7c0,3.4,0,8,0,9.2s-4.6,8-5.7,11.5c-3.4-6.9-3.4-14.9-5.7-18.4c-3.4-4.6-4.6-4.6-8-6.9
						c4.6-8,5.7-9.2,8-14.9c1.1,0,5.7,5.7,8,9.2C86.2,281.6,88.5,287.4,88.5,289.7"/>
					<path fill="#FFFFFF" d="M237.9,19.5c0-1.1-1.1-3.4-1.1-4.6c14.9-28.7,43.7-83.9,43.7-83.9c0-3.4-4.6-1.1-8,5.7
						c-2.3,3.4-24.1,44.8-40.2,73.6c0-2.3,0-3.4,0-3.4c12.6-27.6,34.5-74.7,34.5-74.7c0-8-4.6-1.1-4.6-1.1L231-3.5l-2.3,3.4
						c-12.6-26.4-29.9-66.7-29.9-67.8c-1.1-4.6-3.4-8-5.7-4.6l-2.3-3.4c-3.4-3.4-5.7,0-3.4,5.7c9.2,23,20.7,41.4,32.2,75.9
						l-4.6,20.7l0,0c-3.4,4.6-2.3,4.6-4.6,6.9c0,0-5.7,9.2-5.7,12.6c4.6,2.3,23,2.3,31,1.1c3.4-1.1,10.3-3.4,10.3-9.2
						c-2.3-2.3-3.4-8-4.6-9.2C241.4,25.2,240.2,21.8,237.9,19.5"/>
					<path fill="#FFFFFF" d="M306.9,170.1c0-2.3,0-4.6,1.1-8c1.1-1.1,2.3-2.3,2.3-3.4c-3.4-5.7-5.7-11.5-9.2-16.1
						c-9.2,4.6-3.4,13.8-1.1,16.1c1.1,1.1,4.6,5.7,3.4,10.3c0,2.3,0,2.3-1.1,3.4c-2.3,1.1-6.9,2.3-9.2,2.3
						c-17.2,0-59.8-1.1-79.3-1.1c-18.4-1.1-39.1,1.1-54,0c-2.3,0-4.6,0-8-1.1c-1.1-1.1,1.1-3.4,1.1-4.6c3.4-3.4,5.7-8,8-13.8
						c0-1.1-3.4-3.4-5.7-6.9c-1.1-1.1-1.1-3.4-2.3-5.7c-4.6,6.9-8,14.9-10.3,18.4c1.1,1.1,1.1,1.1,3.4,4.6c1.1,3.4,2.3,5.7,2.3,8
						c-3.4,6.9-5.7,12.6-10.3,21.8c1.1,2.3,2.3,3.4,4.6,3.4c8,2.3,26.4,0,32.2,0c10.3,0,81.6,0,89.7,0c14.9,0,40.2,2.3,47.1,0
						c2.3-1.1,2.3-4.6,3.4-6.9C311.5,181.6,308.1,177,306.9,170.1"/>
					<path fill="#FFFFFF" d="M293.1,144.8c-5.7-16.1,2.3-8-1.1-21.8c-2.3-2.3-9.2-14.9-11.5-20.7c-5.7,2.3,1.1,9.2,1.1,13.8
						c0,3.4-3.4,4.6-5.7,5.7c-12.6,1.1-20.7,0-31,0c-16.1,0-31,0-33.3,0h-32.2c-4.6,0-6.9-1.1-8-4.6c0-4.6,1.1-5.7,0-9.2
						c-1.1,4.6-5.7,11.5-8,14.9c0,3.4,2.3,3.4,3.4,6.9c1.1,4.6,2.3,5.7,0,16.1h21.8c2.3,0,86.2,1.1,97.7,1.1
						C286.2,147.1,294.3,148.3,293.1,144.8"/>
					<path fill="#FFFFFF" d="M259.8,68.9c-11.5,3.4-57.5,6.9-64.4,0c-4.6,8-8,14.9-12.6,24.1c4.6,3.4,37.9,3.4,44.8,3.4
						c6.9,0,18.4,0,25.3,0c5.7,0,13.8-2.3,18.4-5.7C266.7,83.9,263.2,77,259.8,68.9"/>
					<path fill="#FFFFFF" d="M248.3,319.6c1.1,11.5,2.3,17.2,4.6,25.3c24.1,0,112.7,4.6,133.4,8c2.3,0,2.3,0,2.3-9.2
						c0-14.9,3.4-25.3,12.6-32.2c-3.4-5.7-5.7-9.2-8-13.8c-1.1,0-18.4,18.4-14.9,24.1c2.3,3.4-4.6,2.3-5.7,2.3
						C344.9,323,264.4,320.7,248.3,319.6"/>
					<path fill="#FFFFFF" d="M255.2,367.9c2.3,14.9,2.3,20.7,2.3,26.4c14.9,0,54,1.1,95.4,5.7c8,1.1,24.1,3.4,48.3,6.9
						c4.6,0,10.3,1.1,14.9-2.3c-2.3-11.5-8-17.2-11.5-27.6c-5.7,4.6-13.8,2.3-20.7,2.3C374.8,377.1,300,369,255.2,367.9"/>
					<path fill="#FFFFFF" d="M257.5,415c0,6.9-1.1,14.9-1.1,25.3c28.7,1.1,93.1,9.2,94.3,9.2c6.9,1.1,52.9,6.9,66.7,10.3
						c1.1,0,17.2,3.4,23-1.1c0-3.4,0-5.7-1.1-8c-2.3-5.7-3.4-8-3.4-10.3c0,0-3.4-5.7-5.7-10.3c-1.1,1.1-2.3,2.3-2.3,4.6
						c-4.6,0-31-3.4-42.5-5.7c-2.3,0-25.3-4.6-34.5-5.7C324.2,419.6,283.9,417.3,257.5,415"/>
					<path fill="#FFFFFF" d="M319.6,173.6c-6.9,10.3,4.6,28.7,8,39.1c2.3,0,0-6.9,0-10.3c0-4.6,0-8,1.1-11.5
						C324.2,183.9,320.7,180.5,319.6,173.6"/>
					<path fill="#FFFFFF" d="M332.2,221.9L332.2,221.9L332.2,221.9"/>
					<path fill="#FFFFFF" d="M366.7,298.9c0,1.1,4.6,10.3,5.7,11.5c2.3-5.7,3.4-14.9,5.7-18.4c2.3-5.7,4.6-4.6,6.9-6.9
						c-2.3-4.6-4.6-10.3-6.9-14.9c-1.1,0-5.7,5.7-8,9.2C365.6,286.2,366.7,298.9,366.7,298.9"/>
					<path fill="#FFFFFF" d="M358.7,281.6c2.3-11.5,4.6-20.7,10.3-26.4c-2.3-5.7-6.9-11.5-9.2-16.1c-1.1,1.1-8,12.6-9.2,23
						c-1.1,3.4,3.4,9.2-1.1,9.2l0,0c-33.3-2.3-89.7-2.3-105.8-1.1c1.1,10.3,2.3,11.5,3.4,25.3c32.2-1.1,89.7,3.4,97.7,3.4
						c9.2,0,17.2,0,18.4-4.6C358.7,283.9,357.5,283.9,358.7,281.6"/>
					<path fill="#FFFFFF" d="M344.9,221.9c-3.4-4.6-3.4-6.9-8-14.9c-1.1,2.3-3.4,4.6-3.4,8c-1.1,5.7,0,11.5-6.9,11.5
						c-19.5-2.3-62.1-1.1-70.1-2.3c-1.1,0-10.3,0-19.5,0c1.1,8,1.1,14.9,2.3,19.5c0,1.1,0,2.3,1.1,4.6c5.7,0,11.5,0,19.5,0
						c14.9,0,39.1,0,57.5,0c8,0,14.9,2.3,19.5,2.3c2.3,0,6.9,1.1,5.7-4.6c-3.4-8,0-12.6,0-13.8C344.9,225.3,344.9,224.2,344.9,221.9
						 M332.2,221.9L332.2,221.9L332.2,221.9"/>
					<path fill="#FFFFFF" d="M106.9,271.3c-4.6,0-4.6-2.3-4.6-5.7c1.1-10.3-2.3-13.8-4.6-21.8c0-1.1-1.1-3.4-2.3-4.6
						c-2.3,5.7-6.9,10.3-9.2,16.1c5.7,5.7,8,14.9,10.3,26.4c0,2.3-3.4,5.7-5.7,14.9c4.6,5.7,6.9,1.1,14.9,1.1h4.6
						c37.9,0,66.7,0,100-1.1c2.3-10.3,2.3-18.4,4.6-26.4C193.1,273.6,113.8,271.3,106.9,271.3 M106.9,274.8L106.9,274.8
						c0-1.1,0-2.3-1.1-3.4C105.7,272.5,105.7,273.6,106.9,274.8"/>
					<path fill="#FFFFFF" d="M221.8,238c1.1-5.7,1.1-10.3,2.3-14.9c-21.8-1.1-62.1-2.3-92-1.1c-4.6,1.1-3.4-3.4-4.6-4.6l0,0
						c-2.3,4.6-11.5,24.1-11.5,27.6c5.7,4.6,14.9,2.3,23,2.3c21.8,0,46,0,65.5,0c2.3,0,9.2,0,17.2,0
						C220.7,243.7,220.7,241.4,221.8,238"/>
				</g>
			</g>
		</g>
	</g>
</g>
<path fill="#FFFFFF" d="M54-181.5h11.3v45.1l52-45.1h14.8l-36.7,32.1l42.2,58.6H124l-36.7-50.8l-22,18.5v32.3H54V-181.5z"/>
<path fill="#FFFFFF" d="M226.9-133.8h18.3v3.8h-18.3v18.8h-3.8v-18.8h-18.3v-3.8h18.3v-18.8h3.8V-133.8z"/>
<path fill="#FFFFFF" d="M324.1-181.5h52c9,0,16,2.2,21,6.6c5,4.4,7.5,10.4,7.5,18c0,3.8-0.6,7.3-1.9,10.5c-1.2,3.2-3,6-5.3,8.3
	c-2.3,2.4-5.1,4.2-8.4,5.6c-3.3,1.3-7.1,2-11.4,2h-42.2v39.7h-11.3V-181.5z M375.4-140.9c11.6,0,17.3-5,17.3-14.9
	c0-4.7-1.4-8.5-4.3-11.2c-2.9-2.7-7-4.1-12.5-4.1h-40.6v30.1H375.4z"/>
</svg>
