<?xml version="1.0" encoding="utf-8"?>
<!-- Generator: Adobe Illustrator 18.0.0, SVG Export Plug-In . SVG Version: 6.00 Build 0)  -->
<!DOCTYPE svg PUBLIC "-//W3C//DTD SVG 1.1//EN" "http://www.w3.org/Graphics/SVG/1.1/DTD/svg11.dtd">
<svg version="1.1" id="Layer_1" xmlns="http://www.w3.org/2000/svg" xmlns:xlink="http://www.w3.org/1999/xlink" x="0px" y="0px"
	 viewBox="0 0 960 560" enable-background="new 0 0 960 560" xml:space="preserve">
<g>
	<g>
		<g>
			<g>
				<g>
					<g>
						<path d="M325,442.6c-0.3,0-1,0-1.5-0.5c-0.6-0.6-0.6-1.5-0.5-3.8c0.1-1.4,0.1-3.2,0.1-5.9c0-17.1-5.8-23.8-12.4-31.5l-0.4-0.5
							l0.2-0.6c1.2-2.9,2.9-5.2,4.4-7.3c1.6-2.2,3.1-4.2,3.6-6.4l0.2-0.8h0.8c1.2,0,2,1,3.2,2.5c0.6,0.7,1.3,1.6,2.1,2.4
							c1.2,1.5,2.3,2.7,3.4,3.8c4.1,4.4,7.3,7.8,7.3,16.5c0,1.7,0.7,1.9,1.4,1.9c0.7,0,1.4-0.2,2-0.3c0.5-0.1,0.9-0.2,1.3-0.2
							c7.5,0,13.4-0.4,18.2-0.7c3.2-0.2,5.9-0.4,8.3-0.4c1,0,6.8-0.2,12.9-0.5c7.6-0.3,16.2-0.7,18.1-0.7h20.7
							c6.2-0.6,14.2-0.9,22.8-1.2c7.5-0.3,15.2-0.5,23.1-1.1l1.2-0.1l-0.1,1.2c-1.2,11.2-2.5,17.8-4.6,25.5l-0.2,0.7h-0.8
							c-5.2,0-16,0.5-23.2,0.8c-4.1,0.2-7,0.3-7.8,0.3c-1.4,0-4.4,0.2-7.9,0.4c-4.9,0.3-11,0.7-15.1,0.7c-1.1,0-3.1,0.3-5,0.6
							c-2.1,0.3-4.1,0.6-5.3,0.6c-13.8,1.1-23.1,1.1-28.7,1.1c-4.6,0.4-9,0.9-13.3,1.4c-8,1-16.4,2-27,2c-0.3,0-0.6,0-0.9,0
							C325.4,442.6,325.2,442.6,325,442.6z M325,440.6c0.2,0,0.3,0,0.5,0c0.3,0,0.6,0,1,0c10.5,0,18.4-1,26.8-2
							c4.3-0.5,8.7-1.1,13.4-1.5c5.7,0,15,0,28.7-1.1c1.2,0,3.2-0.3,5.1-0.6c2.1-0.3,4.1-0.6,5.3-0.6c4,0,10.1-0.4,15-0.7
							c3.5-0.2,6.6-0.4,8-0.4c0.8,0,3.9-0.1,7.7-0.3c7.3-0.3,17.1-0.8,22.5-0.8c1.9-6.9,3.1-13.2,4.2-23.2c-7.5,0.5-14.9,0.7-22,1
							c-8.5,0.3-16.6,0.6-22.8,1.2l-20.8,0c-1.9,0-10.5,0.4-18,0.7c-6.4,0.3-12,0.5-13,0.5c-2.3,0-5,0.2-8.1,0.4
							c-4.8,0.3-10.7,0.7-18.3,0.7c-0.1,0-0.5,0.1-0.8,0.2c-0.7,0.2-1.6,0.4-2.5,0.4c-2.2,0-3.4-1.4-3.4-3.9
							c0-7.8-2.7-10.7-6.7-15.1c-1.1-1.2-2.2-2.4-3.4-3.8c-0.9-0.8-1.6-1.8-2.2-2.5c-0.3-0.4-0.7-0.9-1-1.2
							c-0.8,2.1-2.1,3.9-3.5,5.8c-1.4,1.9-2.9,3.9-3.9,6.3c6.5,7.6,12.5,14.9,12.5,32.4c0,2.7-0.1,4.6-0.1,6
							C325,439.3,325,440.2,325,440.6z"/>
					</g>
					<g>
						<path d="M305.6,495.6c-2.8,0-6.5-0.3-9.6-2.7l-0.6-0.4l0.2-0.7c1.9-6.2,5-11,8-15.7c2.7-4.2,5.3-8.2,6.9-13l0.5-1.4l1.1,0.9
							c2.9,2.3,5.5,2.7,7.6,2.7c1.2,0,2.5-0.1,3.9-0.3c1.6-0.2,3.3-0.3,5.2-0.3c8,0,46.1-3.5,58.6-4.6c5.9,0,40.6-3.5,50.6-4.6
							l0.1,0h20.7l-0.2,1.1c-0.5,3.8-0.8,8-1.1,12.1c-0.3,4.6-0.6,9-1.2,12.1l-0.1,0.6l-0.6,0.2c-3.3,1.1-11,1.4-22.7,1.9
							c-13.8,0.6-32.6,1.4-54.5,3.9c-9.5,1.1-36.4,4.5-47,6.9l-0.2,0c-2.3,0-6,0.3-9.7,0.6c-3.7,0.3-7.5,0.6-9.9,0.6
							c-0.9,0-1.8,0-2.7,0.1C307.8,495.6,306.7,495.6,305.6,495.6z M297.8,491.8c2.5,1.6,5.4,1.9,7.9,1.9c1,0,2.1,0,3.1-0.1
							c1,0,1.9-0.1,2.8-0.1c2.3,0,6-0.3,9.7-0.6c3.6-0.3,7.4-0.6,9.7-0.6c10.7-2.4,37.7-5.8,47.1-6.9c22-2.5,40.9-3.3,54.7-3.9
							c10.5-0.4,18.3-0.8,21.6-1.6c0.5-2.9,0.8-7,1.1-11.2c0.2-3.7,0.5-7.6,1-11.2h-18.3c-10.1,1.1-44.8,4.6-50.7,4.6
							c-12.4,1.1-50.5,4.6-58.6,4.6c-1.8,0-3.4,0.2-5,0.3c-1.4,0.1-2.8,0.3-4.1,0.3c-3,0-5.4-0.7-7.7-2.3c-1.7,4.5-4.2,8.4-6.7,12.2
							C302.5,481.6,299.6,486.2,297.8,491.8z"/>
					</g>
					<g>
						<path d="M279.6,551.5c-4,0-7-0.8-8.9-2.3l-0.1-0.1c-2.5-2.5-0.7-6,0.5-8.4c0.2-0.3,0.3-0.6,0.4-0.9l0.1-0.1l0.1-0.1
							c1-1,7.9-12.4,11.2-24.9l0.2-0.7h0.8c0.4,0,0.8,0.2,1,0.5c0.7,0.7,0.6,2.1,0.3,4.8c-0.1,1.1-0.2,2.3-0.3,3.4
							c0.7,0.6,1.5,0.6,3.6,0.6c8.3,0,16.8-2.1,25.1-4.1c4.2-1,8.5-2.1,12.7-2.8l0.2,0c1.7,0,33.6-4.1,50.7-6.3
							c6.3-0.8,11.3-1.4,13.5-1.7c28.7-2.4,56.5-4.6,65.7-4.6h0.5l0.3,0.4c2.2,3.3,2.5,15.5,2.5,25.9v1l-1,0
							c-36.8,1.5-69.6,4.2-97.6,8c-1.8,0.3-6.5,0.9-12.4,1.8c-16.5,2.3-44.1,6.1-54.2,8.6l-0.2,0c-0.1,0-0.9,0.2-1.5,0.3
							C289.9,550.4,284.5,551.5,279.6,551.5z M272,547.8c1.5,1.2,4.1,1.8,7.6,1.8c4.8,0,10-1.1,12.8-1.7c1-0.2,1.5-0.3,1.8-0.3
							c10.3-2.5,37.8-6.3,54.3-8.6c5.9-0.8,10.6-1.4,12.4-1.8c27.9-3.8,60.5-6.5,96.9-8c0-12.9-0.7-20.7-1.9-23.3
							c-9.6,0.1-36.8,2.3-64.9,4.6c-2.2,0.3-7.2,0.9-13.5,1.7c-24.5,3.1-48.5,6.2-50.9,6.3c-4.2,0.8-8.4,1.8-12.5,2.8
							c-8.3,2-17,4.1-25.5,4.1c-2.4,0-3.9,0-5.3-1.4l-0.3-0.3v-0.4c0-0.6,0-1.2,0.1-1.8c-3.6,9.9-8.5,18.1-9.7,19.6
							c-0.1,0.2-0.3,0.5-0.4,0.8C271.5,544.3,270.6,546.4,272,547.8z"/>
					</g>
					<g>
						<path d="M383.8,306.2l-1.9-0.4c0.8-6.1,1.3-11.9,0.3-13l-0.3-0.3v-0.4c0-0.7-0.3-1.6-0.7-2.8c-0.7-2.2-1.6-5.3-1.6-9.8v-0.3
							l0.2-0.3c3.4-4.5,8-13.8,10.3-18.2l0.6-1.2l1,0.9c9.4,8.5,1.7,25.1-4,37.2C385.9,300.9,384.5,303.9,383.8,306.2z M383.8,291.7
							c0.8,1.1,1.1,3.2,0.7,7.5c0.4-0.8,0.8-1.7,1.2-2.6c5.2-11.1,12.2-26.1,5.4-33.9c-2.4,4.7-6.4,12.7-9.6,17c0,4,0.9,6.9,1.6,8.9
							C383.5,289.8,383.7,290.8,383.8,291.7z"/>
					</g>
					<g>
						<path d="M369.8,338.4l-1.2-0.6c-1.9-0.9-1.7-3.8-1.5-7.9c0.1-2.8,0.3-5.9-0.2-8.9c-0.2-0.7-0.4-1.4-0.6-1.9
							c-0.6-2-1-3.2-2.7-5.8l-0.3-0.5l0.3-0.5c1.2-2.3,2.9-5.3,4.6-8.1c1.7-2.8,3.4-5.7,4.6-8l0.9-1.8l0.9,1.8
							c1.3,2.5,1.3,5,1.3,8.5l0,0.1c-0.6,5.1-2,11.9-3.2,18.5c-1,5.2-2,10.2-2.5,13.8L369.8,338.4z M365.6,312.7
							c1.6,2.5,2,3.8,2.6,5.8c0.2,0.6,0.4,1.2,0.6,2l0,0.2c0.5,3.2,0.4,6.5,0.2,9.4c0,0.3,0,0.5,0,0.8c0.5-2.5,1-5.2,1.5-7.9
							c1.3-6.5,2.6-13.2,3.2-18.3c0-2.2,0-4-0.3-5.5c-1,1.9-2.3,4-3.6,6.1C368.3,307.8,366.7,310.5,365.6,312.7z"/>
					</g>
					<g>
						<path d="M340.5,401.6l-1.1-2.2c-1.9-3.8-2.7-7.8-3.5-11.3c-0.6-3-1.2-5.5-2.2-7c-2.5-3.4-3.8-4.1-5.8-5.3
							c-0.6-0.4-1.3-0.8-2-1.3l-0.8-0.5l0.5-0.8c1.4-2.4,2.4-4.1,3.3-5.6c2.1-3.5,3.1-5.2,4.7-9.2l0.3-0.6h0.7
							c2.3,0,8.8,9.5,8.9,9.6l0.1,0.1c1,2.1,3.6,8.2,3.6,10.8v9.2c0,0.7-0.6,1.9-2.4,5c-1.3,2.4-2.9,5.1-3.4,6.8L340.5,401.6z
							 M327.8,373.4c0.4,0.3,0.8,0.5,1.2,0.7c2.1,1.3,3.5,2.2,6.3,5.9c1.2,1.8,1.8,4.6,2.5,7.7c0.6,2.8,1.3,5.8,2.4,8.8
							c0.8-1.6,1.7-3.3,2.7-4.9c0.9-1.6,2-3.6,2.1-4.1l0-9.1c0-2-2.1-7.5-3.3-9.8c-2.1-3.1-5.2-6.9-6.7-8.3
							c-1.4,3.4-2.5,5.2-4.4,8.4C329.9,369.9,328.9,371.4,327.8,373.4z"/>
					</g>
					<g>
						<path d="M479.6,137.4C479.6,137.4,479.6,137.4,479.6,137.4c-4.2,0-14.3-0.2-17.9-2l-0.6-0.3v-0.6c0-3.6,5.3-12.2,5.9-13.2
							l0.1-0.2c1-1,1.3-1.5,1.7-2.3c0.4-0.9,1-2,2.7-4.3l4.5-20.2c-7.2-21.5-14.5-37.1-21-50.8c-3.9-8.3-7.7-16.2-11.1-24.8
							c-1.2-3-1.3-5.8-0.3-7.3c0.5-0.8,1.3-1.2,2.1-1.2c1,0,2.1,0.6,3.2,1.7l0.1,0.2l1.6,2.4c0.6-0.5,1.2-0.8,1.8-0.8
							c2.8,0,4.3,4.7,4.8,6.8l0,0.2c0.6,2.4,16.3,39.2,29,65.9l1.3-1.9L518.8,19c0.5-0.8,2.3-3.2,4-3.2c2.4,0,2.4,3.7,2.4,4.9v0.2
							l-0.1,0.2c-0.2,0.5-20.1,43.4-32.8,71c7.8-14,16.3-29.9,23.4-43c7.1-13.1,12.2-22.6,13.4-24.4c2.3-4.6,5.5-7.8,7.8-7.8
							c1,0,2.2,0.7,2.2,2.6v0.2L539,20c0,0-28.6,54.9-43.6,83.7c0.1,0.4,0.3,1.1,0.5,1.8c0.3,0.8,0.5,1.5,0.6,2.2
							c2.1,2.3,3.4,5.6,3.5,9.3c0.5,0.6,0.9,1.7,1.5,3.2c0.7,2,1.7,4.4,2.9,5.6l0.3,0.3v0.4c0,6.5-7.5,9-11,10.1l-0.2,0
							C490,137.2,484.9,137.4,479.6,137.4z M463.2,133.9c2.7,1,8.8,1.5,16.4,1.5c0,0,0,0,0,0c5.1,0,10.1-0.3,13.4-0.7
							c3.3-1.1,9.3-3.1,9.6-7.8c-1.3-1.5-2.3-4-3-6c-0.4-1.1-1-2.5-1.3-2.9l-0.3-0.3v-0.4c0-3.4-1.2-6.5-3.2-8.5l-0.3-0.3v-0.4
							c0-0.4-0.3-1.2-0.5-2c-0.3-1-0.6-1.9-0.6-2.6v-0.2l0.1-0.2c14.4-27.7,41.5-79.8,43.6-83.7C537,19,537,19,537,19
							c-1,0-3.7,2-6,6.8l-0.1,0.1c-1,1.6-6.5,11.6-13.3,24.3c-8.1,15.1-18.3,33.9-26.9,49.2l-1.9,3.3v-7.5l0.1-0.2
							c12.1-26.4,32.8-71.1,34.4-74.5c0-2.3-0.5-2.7-0.5-2.7c-0.3,0-1.5,1.1-2.2,2.3l-31.1,65.6l-3.3,4.9l-0.8-1.6
							c-11.6-24.2-29-64.3-29.9-68l0,0c-0.9-3.6-2.2-5.2-2.8-5.2c-0.3,0-0.7,0.4-1.1,1l-0.8,1.2l-3.1-4.6c-0.9-0.9-1.5-1-1.7-1
							c-0.1,0-0.3,0-0.5,0.3c-0.5,0.8-0.6,2.8,0.5,5.5c3.4,8.5,7.1,16.3,11,24.7c6.5,13.8,13.9,29.5,21.2,51.3l0.1,0.3l-4.7,21.2
							l-0.1,0.2c-1.7,2.2-2.2,3.3-2.6,4.2c-0.4,0.9-0.8,1.6-2,2.8C467.2,124.9,463.7,131,463.2,133.9z"/>
					</g>
					<g>
						<path d="M557.2,288.3C557.2,288.3,557.2,288.3,557.2,288.3c-5.4,0-11.9-0.3-18.2-0.5c-6.2-0.3-12.1-0.5-17-0.5h-89.7
							c-1.5,0-4,0.2-6.9,0.4c-4.3,0.3-9.7,0.7-14.6,0.7c-4.8,0-8.3-0.3-10.8-1c-2.8-0.1-4.2-1.6-5.4-4l-0.2-0.4l0.2-0.4
							c2.5-4.9,4.2-8.8,5.9-12.5c1.4-3.1,2.7-6,4.3-9.1c-0.1-1.4-0.6-3-1.3-4.9c-0.3-0.8-0.6-1.6-0.9-2.4c-2.2-3.3-2.2-3.3-3.3-4.3
							l-0.6-0.6l0.5-0.7c0.9-1.4,2.1-3.6,3.4-6.2c1.9-3.6,4.2-8.2,7-12.2l1-1.4l0.8,1.5c0.5,1.1,0.8,2.2,1.1,3.1
							c0.3,1,0.5,1.9,1,2.4l0.1,0.2c1.1,1.6,2.5,3,3.6,4.2c1.4,1.4,2.3,2.3,2.3,3.3v0.2l-0.1,0.2c-2,5-4.3,10.1-8,13.9
							c-0.1,0.5-0.4,1.1-0.7,1.7c-0.2,0.4-0.7,1.3-0.7,1.6c3.1,1,5.2,1,7.4,1c3,0.2,6.3,0.3,10.2,0.3c4.8,0,9.8-0.2,15.1-0.3
							c5.5-0.2,11.2-0.3,16.9-0.3c4.5,0,8.4,0.1,12,0.3c0,0,0.1,0,0.1,0c10,0,26.2,0.3,41.8,0.6c14.9,0.3,29,0.5,37.4,0.5
							c2.1,0,6.4-1.1,8.6-2.1c0.7-0.7,0.7-0.8,0.7-2.6l0-0.2c1-4.1-2-8.2-3.2-9.4c-1.3-1.3-4.9-6.1-4.1-11c0.5-2.9,2.3-5.1,5.5-6.7
							l0.7-0.4l0.5,0.7c2.1,2.8,3.8,6.1,5.6,9.5c1.1,2.2,2.3,4.5,3.7,6.7l0.1,0.2v0.3c0,1.5-1.2,2.8-2.4,4c-1,3.1-1,5.2-1,7.4
							c0.7,4,2.2,7.3,4.1,11.3c1.2,2.6,2.6,5.5,3.9,9.1l0.2,0.4l-0.2,0.4c-0.3,0.7-0.6,1.5-0.8,2.4c-0.5,1.9-1.1,4-3.1,5l-0.1,0.1
							C567.2,288,563.3,288.3,557.2,288.3z M432.3,285.3H522c4.9,0,10.8,0.2,17.1,0.5c6.3,0.3,12.7,0.5,18.1,0.5c0,0,0,0,0,0
							c5.8,0,9.6-0.3,11.6-0.9c1.1-0.6,1.5-2.1,2-3.7c0.2-0.8,0.5-1.6,0.8-2.3c-1.3-3.4-2.6-6.1-3.7-8.6c-1.9-4.1-3.5-7.6-4.2-11.9
							l0-0.2c0-2.3,0-4.8,1.2-8.4l0.1-0.2l0.2-0.2c0.8-0.8,1.8-1.8,2-2.5c-1.3-2.2-2.5-4.4-3.6-6.5c-1.6-3.1-3.1-5.9-4.9-8.5
							c-2.1,1.2-3.3,2.9-3.7,4.8c-0.6,3.7,2.1,7.9,3.5,9.3c1.4,1.4,4.9,6.2,3.7,11.2c0,2.3-0.1,2.7-1.4,4l-0.1,0.1l-0.1,0.1
							c-2.4,1.2-7.2,2.4-9.6,2.4c-8.4,0-22.5-0.3-37.4-0.5c-15.7-0.3-31.9-0.6-41.9-0.6c-3.6-0.2-7.5-0.3-11.9-0.3
							c-5.6,0-11.3,0.2-16.8,0.3c-5.3,0.2-10.3,0.3-15.1,0.3c-4,0-7.3-0.1-10.2-0.3c-2.3,0-4.7,0-8.3-1.2l-0.2-0.1l-0.2-0.2
							c-1.2-1.2-0.3-3,0.3-4.1c0.2-0.4,0.5-1,0.5-1.2l0-0.4l0.3-0.3c3.5-3.5,5.8-8.4,7.7-13.2c-0.2-0.3-1-1.1-1.7-1.8
							c-1.2-1.2-2.6-2.6-3.8-4.4c-0.8-0.8-1.1-2-1.4-3.2c-0.1-0.3-0.2-0.7-0.3-1c-2.2,3.6-4.2,7.3-5.8,10.4
							c-1.2,2.2-2.2,4.2-3.1,5.7c0.7,0.8,1.1,1.3,3,4.2l0.1,0.2c0.3,0.9,0.6,1.7,0.9,2.5c0.8,2.2,1.5,4,1.5,5.8v0.2l-0.1,0.2
							c-1.6,3.2-3,6.2-4.4,9.3c-1.7,3.6-3.4,7.4-5.7,12.1c1,1.8,1.9,2.5,3.5,2.5l0.3,0c2.3,0.7,5.8,1,10.4,1
							c4.9,0,10.2-0.4,14.5-0.7C428.2,285.5,430.7,285.3,432.3,285.3z"/>
					</g>
					<g>
						<path d="M546.6,236.9L546.6,236.9c-1.3,0-2.5-0.1-2.8-0.2c-8.1,0-51-0.6-76.7-0.9c-11.8-0.2-20.3-0.3-21-0.3H423l0.3-1.2
							c1.9-8.7,1.4-10.6,0.5-13.9c-0.2-0.5-0.3-1.1-0.5-1.8c-0.4-1.3-1.1-2-1.7-2.7c-0.9-1-1.8-2.1-1.8-4.4v-0.3l0.2-0.3
							c2.2-3.3,6.8-10.2,7.9-14.6l0.8-3.3l1.1,3.3c0.8,2.4,0.6,3.8,0.4,5.6c-0.1,1-0.3,2.2-0.3,3.8c1,2.8,2.8,3.8,7,3.8h65.5
							c3.5,0,6.7,0.1,9.9,0.3c3.1,0.1,6.4,0.3,9.8,0.3c3.8,0,7.4-0.2,11.1-0.5c0.2-0.1,0.5-0.2,0.7-0.3c2.5-1.2,4.3-2.2,4.3-4.4
							c0-1.4-0.8-3.3-1.7-5.1c-1.2-2.5-2.3-5.2-1.5-7.3c0.4-1.1,1.3-1.9,2.6-2.4l0.9-0.4l0.4,0.9c2.4,5.9,9.2,18.3,11.3,20.4
							l0.2,0.2l0.1,0.3c1.7,6.8,0.7,8.7-0.2,10.4c-0.8,1.6-1.6,3.1,1.3,11.4c0.4,1.1,0.1,1.9-0.3,2.3
							C550.7,236.4,549.1,236.9,546.6,236.9z M425.5,233.6h20.6c0.7,0,9.2,0.1,21,0.3c25.7,0.3,68.8,0.9,76.8,0.9l0.1,0
							c0,0,1.2,0.2,2.6,0.2c2,0,3-0.4,3.2-0.7c0,0,0.1-0.1,0-0.5c-3-8.4-2.4-10.6-1.2-12.9c0.7-1.4,1.5-2.9,0.1-8.7
							c-2.4-2.7-8.5-13.7-11.1-19.8c-0.3,0.2-0.5,0.5-0.6,0.8c-0.5,1.3,0.5,3.5,1.5,5.7c0.9,2,1.8,4,1.8,5.9c0,3.7-3.1,5.1-5.4,6.2
							c-0.3,0.1-0.6,0.3-0.9,0.4l-0.2,0.1l-0.2,0c-3.8,0.3-7.6,0.5-11.5,0.5c-3.5,0-6.7-0.1-9.9-0.3c-3.1-0.1-6.4-0.3-9.8-0.3h-65.5
							c-5.1,0-7.7-1.5-9-5.3l-0.1-0.2v-0.2c0-1.8,0.2-3.1,0.3-4.2c0-0.2,0.1-0.4,0.1-0.6c-1.8,3.9-4.6,8.1-6.4,10.8
							c0.1,1.4,0.6,2,1.3,2.8c0.7,0.8,1.5,1.8,2.1,3.5c0.2,0.7,0.3,1.3,0.5,1.8C426.6,223.2,427.2,225.4,425.5,233.6z"/>
					</g>
					<g>
						<path d="M510.5,186.1h-25.3c-26.9,0-42.2-1.2-45.4-3.6l-0.7-0.5l0.4-0.7c4.7-9.4,8.1-16.1,12.7-24.2l0.6-1.1l0.9,0.9
							c2.3,2.3,10.9,3.7,23.4,3.7c15.8,0,33.8-2.1,40-3.9l0.9-0.3l0.4,0.8c3.8,9,7.3,15.5,11.4,21.7l0.5,0.8l-0.8,0.6
							C524.9,183.6,516.8,186.1,510.5,186.1z M441.7,181.3c2.6,1.1,11.7,2.9,43.5,2.9h25.3c5.6,0,12.7-2.1,17-5
							c-3.9-5.9-7.1-12.1-10.7-20.4c-7.1,1.9-24.1,3.8-39.7,3.8c-12.3,0-20.3-1.2-23.8-3.5C449.1,166.4,445.9,172.8,441.7,181.3z"/>
					</g>
					<g>
						<path d="M643.9,442.6l-0.2,0c-20.9-3.5-110.5-8-133.2-8h-0.8l-0.2-0.7c-2.2-7.6-3.4-13.4-4.6-25.5l-0.1-1.2l1.2,0.1
							c9.9,0.7,45.1,1.9,76.1,2.9c19.3,0.6,37.6,1.2,48.1,1.7c0.1,0,0.5,0,0.9,0.1c0.6,0.1,1.5,0.1,2.3,0.1c1.6,0,2-0.3,2-0.3
							c0,0-0.1-0.2-0.3-0.6c-1.2-2.1-0.6-5.1,1.8-9.5c3.4-6.1,12.2-16.2,14-16.2h0.6l0.3,0.6c1.7,3.3,3.3,6.1,5.5,9.5
							c0.8,1.3,1.6,2.7,2.6,4.2l0.5,0.8l-0.7,0.5c-8.5,6.4-12.2,16-12.2,31.4C647.2,441.8,647.2,442.6,643.9,442.6z M511.2,432.5
							c24.5,0.1,111.3,4.5,132.7,8c0.3,0,0.7,0,0.8-0.1c0.4-0.4,0.4-3.5,0.4-8.1c0-15.6,3.8-25.7,12.3-32.4
							c-0.7-1.2-1.4-2.4-2.1-3.4c-1.9-3.2-3.5-5.7-5-8.7c-2.8,2.5-11.9,12.6-13.7,19c-0.4,1.4-0.4,2.5,0,3.1c0.7,1,0.8,1.9,0.4,2.6
							c-0.7,1.2-2.5,1.4-3.8,1.4c-0.9,0-1.8-0.1-2.4-0.1c-0.3,0-0.6-0.1-0.8-0.1c-10.5-0.4-28.8-1-48.1-1.7c-29.9-1-63.6-2.1-75-2.8
							C508.1,420.1,509.3,425.6,511.2,432.5z"/>
					</g>
					<g>
						<path d="M664.7,496.8c-1.1,0-2.1,0-3.2-0.1c-0.9,0-1.9-0.1-2.7-0.1l-0.1,0l-48.3-6.9c-40.9-4.5-80.2-5.7-95.3-5.7h-1v-1
							c0-5.6,0-11.4-2.3-26.3l-0.2-1.2l1.2,0c45.2,1.2,119,9.1,128.9,11.5c1.7,0,3.5,0.1,5.2,0.3c1.8,0.1,3.6,0.3,5.4,0.3
							c4.1,0,7-0.8,9.3-2.7l1.1-0.9l0.5,1.4c1.4,4.3,3.3,7.8,5.1,11.3c2.5,4.7,5.1,9.7,6.4,16.5l0.1,0.6l-0.5,0.4
							C671.2,496.5,667.5,496.8,664.7,496.8z M658.9,494.6c0.9,0,1.8,0,2.8,0.1c1,0,2,0.1,3.1,0.1c2.5,0,5.4-0.2,7.9-1.9
							c-1.3-6.2-3.7-10.6-6.1-15.3c-1.7-3.2-3.4-6.4-4.8-10.3c-2.5,1.6-5.4,2.3-9.4,2.3c-1.9,0-3.7-0.2-5.6-0.3
							c-1.8-0.1-3.5-0.3-5.2-0.3l-0.2,0c-9-2.3-83-10.2-127.4-11.4c2,13.3,2.1,19.2,2.1,24.4c15.8,0.1,54.5,1.3,94.6,5.8
							L658.9,494.6z"/>
					</g>
					<g>
						<path d="M687.7,550.7c-4.5,0-9.2-0.7-11.4-1.1c-0.6-0.1-1.2-0.2-1.3-0.2l-0.2,0c-10.1-2.5-37.7-6.3-54.2-8.6
							c-5.9-0.8-10.5-1.4-12.4-1.8c-0.5,0-2.1-0.2-7.4-0.8c-17.5-2-63.8-7.4-86.9-8.4l-1,0v-1c0-5.7,0.4-10.8,0.7-15.3
							c0.2-3.6,0.5-7,0.5-10v-1.1l1.1,0.1c8.5,0.7,18.3,1.5,28.8,2.2c21.8,1.6,46.4,3.5,64.4,5.8c4.9,0.6,13.4,2.1,21,3.5
							c6.4,1.1,12.4,2.2,13.4,2.2l0.2,0c10.6,2.1,34.9,5.4,41.4,5.7c0.3-2.1,1.5-3.2,2.5-4.3l1-1l0.6,1.2c2.3,4.5,5.7,10.2,5.7,10.3
							l0.1,0.2v0.3c0,1.7,0.7,3.5,2.2,7.1c0.3,0.8,0.7,1.8,1.2,2.8c1.2,2.4,1.2,4.9,1.2,8.4v0.5l-0.4,0.3
							C696.4,549.9,692.7,550.7,687.7,550.7z M675.1,547.5c0.3,0,0.7,0.1,1.5,0.2c2.2,0.3,6.7,1,11.1,1c4.3,0,7.4-0.6,9.2-1.9
							c0-3-0.1-5.1-1-7.1c-0.5-1.1-0.8-2.1-1.2-2.9c-1.5-3.7-2.3-5.6-2.4-7.6c-0.6-1-3-5.1-5-8.9c-0.6,0.8-1.1,1.6-1.1,2.9v1h-1
							c-4.8,0-31-3.4-42.7-5.8c-1.3,0-6.1-0.9-13.7-2.3c-7.5-1.4-16.1-2.9-20.9-3.5c-17.9-2.3-42.6-4.2-64.3-5.8
							c-10-0.7-19.5-1.5-27.7-2.2c0,2.8-0.3,5.9-0.5,9.1c-0.3,4.2-0.6,8.9-0.7,14.2c23.4,1,68.8,6.3,86.1,8.3c4,0.5,6.9,0.8,7.3,0.8
							l0.1,0c1.8,0.3,6.5,0.9,12.4,1.8C637.2,541.2,664.8,545,675.1,547.5z"/>
					</g>
					<g>
						<path d="M585.2,302.3h-0.7l-0.2-0.7c-0.8-2.4-2-5.2-3.4-8.3c-4.5-10.4-10.2-23.3-4.6-31.7l1.4-2.1l0.4,2.5
							c0.9,5.2,3.1,8.4,6.2,12.8c0.9,1.2,1.8,2.6,2.8,4l0.3,0.4l-0.2,0.5c-1.1,3.3-1.1,6.6-1.1,11.2c0,1.1,0.3,2.6,0.5,4.1
							c0.6,3.4,0.9,5.5-0.1,6.7C586.3,302.1,585.8,302.3,585.2,302.3z M576.8,265.1c-2.7,7.5,2,18.5,5.9,27.4c0.9,2,1.7,4,2.4,5.8
							c-0.1-1-0.3-2.1-0.4-3c-0.3-1.5-0.5-3.1-0.5-4.4c0-4.4,0-7.9,1-11.3c-0.9-1.3-1.7-2.5-2.5-3.6
							C580.1,272.2,578,269.2,576.8,265.1z"/>
					</g>
					<g>
						<path fill="none" d="M589.8,310.5L589.8,310.5L589.8,310.5"/>
					</g>
					<g>
						<path d="M630.4,400.8l-1.1-1.1c-1.2-1.2-6-10.7-6-12.2c0-0.4-1.1-13,3.6-20.1c0.1-0.1,6.5-9.6,8.9-9.6h0.6l0.3,0.6
							c1.2,2.3,2.3,5,3.5,7.5c1.1,2.5,2.3,5.2,3.4,7.4l0.3,0.6l-0.5,0.5c-0.9,0.9-1.8,1.3-2.6,1.7c-1.5,0.7-2.7,1.4-4.1,4.8
							l-0.1,0.2c-1.2,1.8-2.1,5.5-3.1,9.3c-0.8,3.1-1.6,6.3-2.6,8.9L630.4,400.8z M635.4,360.2c-1.5,1.3-4.7,5.2-6.8,8.4
							c-4.3,6.5-3.3,18.8-3.3,18.9c0.1,1,2.9,6.6,4.5,9.4c0.7-2.1,1.3-4.5,1.9-6.8c1-4,1.9-7.8,3.3-9.9c1.7-4.1,3.5-5,5-5.8
							c0.5-0.3,1-0.5,1.5-0.9c-1-2.1-2.1-4.5-3.1-6.8C637.4,364.5,636.4,362.2,635.4,360.2z"/>
					</g>
					<g>
						<path d="M602.5,388.5c-2.3,0-8.5-0.4-17.1-0.9c-18.6-1.1-46.8-2.8-69.1-2.8c-4.2,0-8.1,0.1-11.5,0.2l-1,0l-0.1-1
							c-0.7-7.9-1.3-11.7-2-15.4c-0.5-2.7-1-5.5-1.5-9.9l-0.1-1l1-0.1c6.6-0.5,20.2-0.8,36.3-0.8c26.3,0,52.3,0.7,69.6,1.9
							c0.4,0,0.8-0.1,0.9-0.2c0.3-0.4-0.1-1.9-0.4-3c-0.4-1.7-0.9-3.6-0.4-5.2c1.2-10.5,8.2-22.2,9.5-23.5l1-1l0.6,1.2
							c0.9,1.8,2.2,3.8,3.6,6c2.1,3.3,4.3,6.7,5.7,10.2l0.2,0.6l-0.5,0.5c-5.7,5.7-7.9,15.1-10.1,25.9l-0.1,0.3
							c-0.5,1-0.5,1.1,1.1,4.4c0.8,1.7,2,3.9,3.5,7.4l0.1,0.3l-0.1,0.3C620.5,388.5,612.1,388.5,602.5,388.5z M516.3,382.9
							c22.4,0,50.6,1.7,69.2,2.8c8.5,0.5,14.7,0.9,17,0.9c8.2,0,16,0,17.3-3.5c-1.4-3.2-2.5-5.4-3.3-7c-1.6-3.2-2.1-4.2-1.2-6.1
							c2.2-10.8,4.5-20.3,10.1-26.3c-1.3-3.1-3.3-6.2-5.2-9.3c-1.1-1.7-2.1-3.2-2.9-4.7c-2.1,3.3-7.1,12.6-8.1,21.2l0,0.2
							c-0.4,1.1,0.1,2.7,0.4,4.2c0.5,1.8,0.9,3.5,0,4.7c-0.5,0.7-1.4,1-2.6,1c-17.3-1.2-43.3-1.9-69.6-1.9
							c-15.2,0-28.2,0.3-35.1,0.7c0.4,3.7,0.9,6.3,1.3,8.7c0.6,3.6,1.3,7.2,1.9,14.6C508.8,382.9,512.4,382.9,516.3,382.9z"/>
					</g>
					<g>
						<path d="M596.8,340.3c-0.5,0-0.9,0-1.4-0.1c-0.3,0-0.7,0-1,0c-2.1,0-4.5-0.4-7.3-0.9c-3.6-0.6-7.8-1.4-12.2-1.4h-77.7
							l-0.3-0.6c-1.2-2.4-1.3-3.8-1.3-4.9c-0.6-2.6-0.9-5.9-1.3-9.8c-0.3-2.9-0.5-6.3-1-9.8l-0.2-1.1l20.8,0
							c3.3,0.5,12.7,0.6,23.7,0.6c15.6,0.1,34.9,0.3,46.4,1.6c4.3,0,4.8-2.3,5.3-7.1c0.1-1.1,0.3-2.3,0.5-3.5c0-2.7,1.3-4.8,2.5-6.6
							c0.4-0.6,0.8-1.2,1.1-1.8l0.8-1.7l0.9,1.6c2.1,3.6,3.2,6.1,4.2,8.2c1.1,2.5,2,4.2,3.8,6.7l0.2,0.3v0.3c0,2.4,0,3.6-2.3,10.5
							c0,0.4-0.2,0.8-0.4,1.3c-0.7,1.9-2.2,5.9,0.3,11.9l0.1,0.2c0.4,2,0.2,3.5-0.6,4.5C599.5,340.2,597.9,340.3,596.8,340.3z
							 M498.5,335.9h76.4c4.7,0,8.9,0.7,12.6,1.4c2.7,0.5,5.1,0.9,7,0.9c0.3,0,0.7,0,1.1,0c0.4,0,0.8,0,1.3,0c1.2,0,1.9-0.2,2.2-0.6
							c0.4-0.5,0.5-1.4,0.2-2.8c-2.8-6.7-1.1-11.2-0.3-13.3c0.1-0.3,0.3-0.7,0.3-0.8l0-0.3c2.1-6.4,2.2-7.7,2.2-9.7
							c-1.8-2.5-2.7-4.4-3.8-6.8c-0.8-1.7-1.7-3.7-3.2-6.5c-0.1,0.1-0.2,0.3-0.3,0.4c-1.1,1.7-2.2,3.4-2.2,5.6l0,0.2
							c-0.2,1.2-0.4,2.3-0.5,3.5c-0.5,4.3-1,8.8-7.4,8.8l-0.1,0c-11.4-1.3-30.7-1.5-46.2-1.6c-11.4-0.1-20.4-0.2-23.9-0.7h-18.3
							c0.4,3.1,0.7,6.1,0.9,8.7c0.3,3.8,0.6,7.1,1.2,9.6l0,0.2C497.7,333.3,497.7,334.2,498.5,335.9z"/>
					</g>
					<g>
						<path d="M353.1,389.1c-2,0-3.7-1-5.5-3.3l-0.3-0.4l0.1-0.5c1.4-5.5,3.2-9.1,4.4-11.4c0.7-1.4,1.3-2.5,1.3-3.2
							c-2.2-10.8-4.4-20.2-10.1-25.8l-0.5-0.5l0.2-0.6c1.2-3,3-5.6,4.7-8.2c1.7-2.5,3.4-5.1,4.5-7.9l0.6-1.4l1.1,1.1
							c1.2,1.2,2.5,3.6,2.6,5.2c0.6,2.2,1.4,4.1,2.1,5.9c1.8,4.6,3.4,8.6,2.5,16.2c0,2.5,0,3.9,1.4,4.4v-1.1l1.4,1.4
							c0.2,0,0.5,0,0.8,0c1.1,0,3.9,0.1,8.2,0.1c10.8,0.2,30.8,0.6,50.3,0.6c24.8,0,41.5-0.6,49.4-1.9l1.5-0.2l-0.4,1.5
							c-1.2,4.2-1.8,8.6-2.4,13.1c-0.5,4.1-1.1,8.4-2.2,13.2l-0.2,0.8l-0.8,0c-33.4,1.2-62.8,1.2-100.1,1.2h-4.6
							c-2.8,0-4.8,0.6-6.6,1.1C355.4,388.8,354.2,389.1,353.1,389.1z M349.4,385c1.6,1.9,2.7,2.1,3.6,2.1c0.9,0,1.9-0.3,3.1-0.6
							c1.8-0.5,4.1-1.1,7.1-1.1h4.6c37,0,66.2,0,99.2-1.1c1-4.5,1.5-8.5,2-12.3c0.5-4.1,1.1-8.1,2.1-11.9
							c-8.5,1.1-24.7,1.7-48.2,1.7c-19.6,0-39.6-0.4-50.4-0.6c-3.4-0.1-6.1-0.1-7.5-0.1c0.3,0.9,0.3,1.7,0.3,2.4v2.4l-1.7-1.7
							c-1.1-1.1-1.4-2.3-1.4-3.4c-3.5-0.8-3.5-3.7-3.5-6.5l0-0.1c0.8-7.1-0.6-10.7-2.4-15.3c-0.7-1.9-1.5-3.8-2.2-6.2l0-0.3
							c0-0.5-0.5-1.7-1.1-2.7c-1.1,2.4-2.6,4.5-4,6.7c-1.5,2.3-3.1,4.7-4.3,7.3c5.7,6.1,8,15.6,10.2,26.5l0,0.2
							c0,1.2-0.6,2.5-1.5,4.2C352.4,376.8,350.7,380,349.4,385z"/>
					</g>
					<g>
						<path d="M384.3,337.3c-3.4,0-7.8-0.4-11.3-3.1l-0.4-0.3v-0.5c0-3.9,10.1-25,11.6-28l0.6-1.2l1,1c0.6,0.6,0.7,1.4,0.9,2.2
							c0.4,1.7,0.6,2.2,1.7,2.2c0.3,0,0.7-0.1,1.1-0.2l0.2,0c8.2-0.3,17.7-0.5,28.3-0.5c24.3,0,48.9,0.8,63.8,1.6l1.2,0.1l-0.3,1.2
							c-0.6,2.4-0.9,4.8-1.2,7.4c-0.3,2.4-0.6,4.8-1.1,7.5l0,0.1c-1.1,3.2-1.1,5.3,0,8.6l0.4,1.3h-84.2c-2,0-4.1,0.1-6.1,0.3
							C388.5,337.2,386.3,337.3,384.3,337.3z M374.7,333c2.2,1.6,5.2,2.3,9.6,2.3c2,0,4.1-0.1,6.1-0.3c2.1-0.1,4.2-0.3,6.2-0.3h81.4
							c-0.8-3-0.7-5.3,0.4-8.5c0.5-2.6,0.8-5,1.1-7.3c0.3-2.2,0.5-4.3,1-6.4c-15-0.8-39-1.6-62.5-1.6c-10.4,0-19.9,0.2-28.1,0.5
							c-0.5,0.1-1,0.2-1.5,0.2c-2.4,0-3.1-1.7-3.5-3.1C381.4,315.9,375.3,329.5,374.7,333z"/>
					</g>
				</g>
			</g>
		</g>
	</g>
</g>
</svg>
